<?xml version="1.0" encoding="utf-8"?>
<!-- Generator: Adobe Illustrator 25.0.0, SVG Export Plug-In . SVG Version: 6.00 Build 0)  -->
<svg version="1.1" id="图层_1" xmlns="http://www.w3.org/2000/svg" xmlns:xlink="http://www.w3.org/1999/xlink" x="0px" y="0px"
	 viewBox="0 0 598.8 476.4" style="enable-background:new 0 0 598.8 476.4;" xml:space="preserve">
<style type="text/css">
	.st0{fill:#FFFFFF;}
	
		.st1{clip-path:url(#SVGID_2_);fill:none;stroke:#B0B0B0;stroke-width:0.8;stroke-linecap:square;stroke-linejoin:round;stroke-opacity:0.25;}
	.st2{stroke:#000000;stroke-width:0.8;stroke-linejoin:round;}
	.st3{font-family:'DejaVuSansMono';}
	.st4{font-size:10px;}
	
		.st5{clip-path:url(#SVGID_4_);fill:none;stroke:#B0B0B0;stroke-width:0.8;stroke-linecap:square;stroke-linejoin:round;stroke-opacity:0.25;}
	
		.st6{clip-path:url(#SVGID_6_);fill:none;stroke:#B0B0B0;stroke-width:0.8;stroke-linecap:square;stroke-linejoin:round;stroke-opacity:0.25;}
	
		.st7{clip-path:url(#SVGID_8_);fill:none;stroke:#B0B0B0;stroke-width:0.8;stroke-linecap:square;stroke-linejoin:round;stroke-opacity:0.25;}
	
		.st8{clip-path:url(#SVGID_10_);fill:none;stroke:#B0B0B0;stroke-width:0.8;stroke-linecap:square;stroke-linejoin:round;stroke-opacity:0.25;}
	
		.st9{clip-path:url(#SVGID_12_);fill:none;stroke:#B0B0B0;stroke-width:0.8;stroke-linecap:square;stroke-linejoin:round;stroke-opacity:0.25;}
	
		.st10{clip-path:url(#SVGID_14_);fill:none;stroke:#B0B0B0;stroke-width:0.8;stroke-linecap:square;stroke-linejoin:round;stroke-opacity:0.25;}
	
		.st11{clip-path:url(#SVGID_16_);fill:none;stroke:#B0B0B0;stroke-width:0.8;stroke-linecap:square;stroke-linejoin:round;stroke-opacity:0.25;}
	
		.st12{clip-path:url(#SVGID_18_);fill:none;stroke:#B0B0B0;stroke-width:0.8;stroke-linecap:square;stroke-linejoin:round;stroke-opacity:0.25;}
	
		.st13{clip-path:url(#SVGID_20_);fill:none;stroke:#B0B0B0;stroke-width:0.8;stroke-linecap:square;stroke-linejoin:round;stroke-opacity:0.25;}
	
		.st14{clip-path:url(#SVGID_22_);fill:none;stroke:#B0B0B0;stroke-width:0.8;stroke-linecap:square;stroke-linejoin:round;stroke-opacity:0.25;}
	
		.st15{clip-path:url(#SVGID_24_);fill:none;stroke:#B0B0B0;stroke-width:0.8;stroke-linecap:square;stroke-linejoin:round;stroke-opacity:0.25;}
	
		.st16{clip-path:url(#SVGID_26_);fill:none;stroke:#B0B0B0;stroke-width:0.8;stroke-linecap:square;stroke-linejoin:round;stroke-opacity:0.25;}
	
		.st17{clip-path:url(#SVGID_28_);fill:none;stroke:#B0B0B0;stroke-width:0.8;stroke-linecap:square;stroke-linejoin:round;stroke-opacity:0.25;}
	
		.st18{clip-path:url(#SVGID_30_);fill:none;stroke:#B0B0B0;stroke-width:0.8;stroke-linecap:square;stroke-linejoin:round;stroke-opacity:0.25;}
	.st19{clip-path:url(#SVGID_32_);fill:none;stroke:#9A3412;stroke-width:1.4;stroke-linejoin:round;stroke-dasharray:5.18,2.24;}
	.st20{fill:none;stroke:#000000;stroke-width:0.8;stroke-linecap:square;}
	.st21{clip-path:url(#SVGID_34_);}
	.st22{fill:#0F766E;stroke:#FFFFFF;stroke-linejoin:round;}
	.st23{font-size:8px;}
	.st24{font-size:13px;}
</style>
<g id="patch_1">
	<path class="st0" d="M0,476.4h598.8V0H0V476.4z"/>
</g>
<g id="patch_2">
	<path class="st0" d="M56.5,438.8h458.1V43.7H56.5V438.8z"/>
</g>
<g id="matplotlib.axis_1">
	<g id="xtick_1">
		<g id="line2d_1">
			<g>
				<defs>
					<rect id="SVGID_1_" x="56.5" y="43.7" width="458.1" height="395.1"/>
				</defs>
				<clipPath id="SVGID_2_">
					<use xlink:href="#SVGID_1_"  style="overflow:visible;"/>
				</clipPath>
				<path class="st1" d="M105.7,438.8V43.7"/>
			</g>
		</g>
		<g id="line2d_2">
			<g>
				<g>
					<path id="m87864b6d90" class="st2" d="M105.7,438.8v3.5"/>
				</g>
			</g>
		</g>
		<g id="text_1">
			<text transform="matrix(1 0 0 1 93.6129 453.4417)" class="st3 st4">0.90</text>
		</g>
	</g>
	<g id="xtick_2">
		<g id="line2d_3">
			<g>
				<defs>
					<rect id="SVGID_3_" x="56.5" y="43.7" width="458.1" height="395.1"/>
				</defs>
				<clipPath id="SVGID_4_">
					<use xlink:href="#SVGID_3_"  style="overflow:visible;"/>
				</clipPath>
				<path class="st5" d="M162.2,438.8V43.7"/>
			</g>
		</g>
		<g id="line2d_4">
			<g>
				<g>
					<path id="m87864b6d90_1_" class="st2" d="M162.2,438.8v3.5"/>
				</g>
			</g>
		</g>
		<g id="text_2">
			<text transform="matrix(1 0 0 1 150.1326 453.4417)" class="st3 st4">0.91</text>
		</g>
	</g>
	<g id="xtick_3">
		<g id="line2d_5">
			<g>
				<defs>
					<rect id="SVGID_5_" x="56.5" y="43.7" width="458.1" height="395.1"/>
				</defs>
				<clipPath id="SVGID_6_">
					<use xlink:href="#SVGID_5_"  style="overflow:visible;"/>
				</clipPath>
				<path class="st6" d="M218.7,438.8V43.7"/>
			</g>
		</g>
		<g id="line2d_6">
			<g>
				<g>
					<path id="m87864b6d90_2_" class="st2" d="M218.7,438.8v3.5"/>
				</g>
			</g>
		</g>
		<g id="text_3">
			<text transform="matrix(1 0 0 1 206.6523 453.4417)" class="st3 st4">0.92</text>
		</g>
	</g>
	<g id="xtick_4">
		<g id="line2d_7">
			<g>
				<defs>
					<rect id="SVGID_7_" x="56.5" y="43.7" width="458.1" height="395.1"/>
				</defs>
				<clipPath id="SVGID_8_">
					<use xlink:href="#SVGID_7_"  style="overflow:visible;"/>
				</clipPath>
				<path class="st7" d="M275.2,438.8V43.7"/>
			</g>
		</g>
		<g id="line2d_8">
			<g>
				<g>
					<path id="m87864b6d90_3_" class="st2" d="M275.2,438.8v3.5"/>
				</g>
			</g>
		</g>
		<g id="text_4">
			<text transform="matrix(1 0 0 1 263.1721 453.4417)" class="st3 st4">0.93</text>
		</g>
	</g>
	<g id="xtick_5">
		<g id="line2d_9">
			<g>
				<defs>
					<rect id="SVGID_9_" x="56.5" y="43.7" width="458.1" height="395.1"/>
				</defs>
				<clipPath id="SVGID_10_">
					<use xlink:href="#SVGID_9_"  style="overflow:visible;"/>
				</clipPath>
				<path class="st8" d="M331.7,438.8V43.7"/>
			</g>
		</g>
		<g id="line2d_10">
			<g>
				<g>
					<path id="m87864b6d90_4_" class="st2" d="M331.7,438.8v3.5"/>
				</g>
			</g>
		</g>
		<g id="text_5">
			<text transform="matrix(1 0 0 1 319.6919 453.4417)" class="st3 st4">0.94</text>
		</g>
	</g>
	<g id="xtick_6">
		<g id="line2d_11">
			<g>
				<defs>
					<rect id="SVGID_11_" x="56.5" y="43.7" width="458.1" height="395.1"/>
				</defs>
				<clipPath id="SVGID_12_">
					<use xlink:href="#SVGID_11_"  style="overflow:visible;"/>
				</clipPath>
				<path class="st9" d="M388.3,438.8V43.7"/>
			</g>
		</g>
		<g id="line2d_12">
			<g>
				<g>
					<path id="m87864b6d90_5_" class="st2" d="M388.3,438.8v3.5"/>
				</g>
			</g>
		</g>
		<g id="text_6">
			<text transform="matrix(1 0 0 1 376.2117 453.4417)" class="st3 st4">0.95</text>
		</g>
	</g>
	<g id="xtick_7">
		<g id="line2d_13">
			<g>
				<defs>
					<rect id="SVGID_13_" x="56.5" y="43.7" width="458.1" height="395.1"/>
				</defs>
				<clipPath id="SVGID_14_">
					<use xlink:href="#SVGID_13_"  style="overflow:visible;"/>
				</clipPath>
				<path class="st10" d="M444.8,438.8V43.7"/>
			</g>
		</g>
		<g id="line2d_14">
			<g>
				<g>
					<path id="m87864b6d90_6_" class="st2" d="M444.8,438.8v3.5"/>
				</g>
			</g>
		</g>
		<g id="text_7">
			<text transform="matrix(1 0 0 1 432.7313 453.4417)" class="st3 st4">0.96</text>
		</g>
	</g>
	<g id="xtick_8">
		<g id="line2d_15">
			<g>
				<defs>
					<rect id="SVGID_15_" x="56.5" y="43.7" width="458.1" height="395.1"/>
				</defs>
				<clipPath id="SVGID_16_">
					<use xlink:href="#SVGID_15_"  style="overflow:visible;"/>
				</clipPath>
				<path class="st11" d="M501.3,438.8V43.7"/>
			</g>
		</g>
		<g id="line2d_16">
			<g>
				<g>
					<path id="m87864b6d90_7_" class="st2" d="M501.3,438.8v3.5"/>
				</g>
			</g>
		</g>
		<g id="text_8">
			<text transform="matrix(1 0 0 1 489.2511 453.4417)" class="st3 st4">0.97</text>
		</g>
	</g>
	<g id="text_9">
		<text transform="matrix(1 0 0 1 213.3054 467.1199)" class="st3 st4">Mean pairwise Linear CKA</text>
	</g>
</g>
<g id="matplotlib.axis_2">
	<g id="ytick_1">
		<g id="line2d_17">
			<g>
				<defs>
					<rect id="SVGID_17_" x="56.5" y="43.7" width="458.1" height="395.1"/>
				</defs>
				<clipPath id="SVGID_18_">
					<use xlink:href="#SVGID_17_"  style="overflow:visible;"/>
				</clipPath>
				<path class="st12" d="M56.5,390.4h458.1"/>
			</g>
		</g>
		<g id="line2d_18">
			<g>
				<g>
					<path id="ma99810280e" class="st2" d="M56.5,390.4H53"/>
				</g>
			</g>
		</g>
		<g id="text_10">
			<text transform="matrix(1 0 0 1 19.4037 394.2061)" class="st3 st4">0.170</text>
		</g>
	</g>
	<g id="ytick_2">
		<g id="line2d_19">
			<g>
				<defs>
					<rect id="SVGID_19_" x="56.5" y="43.7" width="458.1" height="395.1"/>
				</defs>
				<clipPath id="SVGID_20_">
					<use xlink:href="#SVGID_19_"  style="overflow:visible;"/>
				</clipPath>
				<path class="st13" d="M56.5,338.3h458.1"/>
			</g>
		</g>
		<g id="line2d_20">
			<g>
				<g>
					<path id="ma99810280e_1_" class="st2" d="M56.5,338.3H53"/>
				</g>
			</g>
		</g>
		<g id="text_11">
			<text transform="matrix(1 0 0 1 19.4037 342.1288)" class="st3 st4">0.175</text>
		</g>
	</g>
	<g id="ytick_3">
		<g id="line2d_21">
			<g>
				<defs>
					<rect id="SVGID_21_" x="56.5" y="43.7" width="458.1" height="395.1"/>
				</defs>
				<clipPath id="SVGID_22_">
					<use xlink:href="#SVGID_21_"  style="overflow:visible;"/>
				</clipPath>
				<path class="st14" d="M56.5,286.3h458.1"/>
			</g>
		</g>
		<g id="line2d_22">
			<g>
				<g>
					<path id="ma99810280e_2_" class="st2" d="M56.5,286.3H53"/>
				</g>
			</g>
		</g>
		<g id="text_12">
			<text transform="matrix(1 0 0 1 19.4037 290.0516)" class="st3 st4">0.180</text>
		</g>
	</g>
	<g id="ytick_4">
		<g id="line2d_23">
			<g>
				<defs>
					<rect id="SVGID_23_" x="56.5" y="43.7" width="458.1" height="395.1"/>
				</defs>
				<clipPath id="SVGID_24_">
					<use xlink:href="#SVGID_23_"  style="overflow:visible;"/>
				</clipPath>
				<path class="st15" d="M56.5,234.2h458.1"/>
			</g>
		</g>
		<g id="line2d_24">
			<g>
				<g>
					<path id="ma99810280e_3_" class="st2" d="M56.5,234.2H53"/>
				</g>
			</g>
		</g>
		<g id="text_13">
			<text transform="matrix(1 0 0 1 19.4037 237.9744)" class="st3 st4">0.185</text>
		</g>
	</g>
	<g id="ytick_5">
		<g id="line2d_25">
			<g>
				<defs>
					<rect id="SVGID_25_" x="56.5" y="43.7" width="458.1" height="395.1"/>
				</defs>
				<clipPath id="SVGID_26_">
					<use xlink:href="#SVGID_25_"  style="overflow:visible;"/>
				</clipPath>
				<path class="st16" d="M56.5,182.1h458.1"/>
			</g>
		</g>
		<g id="line2d_26">
			<g>
				<g>
					<path id="ma99810280e_4_" class="st2" d="M56.5,182.1H53"/>
				</g>
			</g>
		</g>
		<g id="text_14">
			<text transform="matrix(1 0 0 1 19.4037 185.8972)" class="st3 st4">0.190</text>
		</g>
	</g>
	<g id="ytick_6">
		<g id="line2d_27">
			<g>
				<defs>
					<rect id="SVGID_27_" x="56.5" y="43.7" width="458.1" height="395.1"/>
				</defs>
				<clipPath id="SVGID_28_">
					<use xlink:href="#SVGID_27_"  style="overflow:visible;"/>
				</clipPath>
				<path class="st17" d="M56.5,130h458.1"/>
			</g>
		</g>
		<g id="line2d_28">
			<g>
				<g>
					<path id="ma99810280e_5_" class="st2" d="M56.5,130H53"/>
				</g>
			</g>
		</g>
		<g id="text_15">
			<text transform="matrix(1 0 0 1 19.4037 133.8201)" class="st3 st4">0.195</text>
		</g>
	</g>
	<g id="ytick_7">
		<g id="line2d_29">
			<g>
				<defs>
					<rect id="SVGID_29_" x="56.5" y="43.7" width="458.1" height="395.1"/>
				</defs>
				<clipPath id="SVGID_30_">
					<use xlink:href="#SVGID_29_"  style="overflow:visible;"/>
				</clipPath>
				<path class="st18" d="M56.5,77.9h458.1"/>
			</g>
		</g>
		<g id="line2d_30">
			<g>
				<g>
					<path id="ma99810280e_6_" class="st2" d="M56.5,77.9H53"/>
				</g>
			</g>
		</g>
		<g id="text_16">
			<text transform="matrix(1 0 0 1 19.4037 81.7429)" class="st3 st4">0.200</text>
		</g>
	</g>
	<g id="text_17">
		<text transform="matrix(6.123234e-17 -1 1 6.123234e-17 14.7985 361.6836)" class="st3 st4">Mean absolute feature-level Spearman rho</text>
	</g>
</g>
<g id="line2d_31">
	<g>
		<defs>
			<rect id="SVGID_31_" x="56.5" y="43.7" width="458.1" height="395.1"/>
		</defs>
		<clipPath id="SVGID_32_">
			<use xlink:href="#SVGID_31_"  style="overflow:visible;"/>
		</clipPath>
		<path class="st19" d="M77.3,207.7l4.2,0.6l4.2,0.6l4.2,0.6l4.2,0.6l4.2,0.6l4.2,0.6l4.2,0.6l4.2,0.6l4.2,0.6l4.2,0.6l4.2,0.6
			l4.2,0.6l4.2,0.6l4.2,0.6l4.2,0.6l4.2,0.6l4.2,0.6l4.2,0.6l4.2,0.6l4.2,0.6l4.2,0.6l4.2,0.6l4.2,0.6l4.2,0.6l4.2,0.6l4.2,0.6
			l4.2,0.6l4.2,0.6l4.2,0.6l4.2,0.6l4.2,0.6l4.2,0.6l4.2,0.6l4.2,0.6l4.2,0.6l4.2,0.6l4.2,0.6l4.2,0.6l4.2,0.6l4.2,0.6l4.2,0.6
			l4.2,0.6l4.2,0.6l4.2,0.6l4.2,0.6l4.2,0.6l4.2,0.6l4.2,0.6l4.2,0.6l4.2,0.6l4.2,0.6l4.2,0.6l4.2,0.6l4.2,0.6l4.2,0.6l4.2,0.6
			l4.2,0.6l4.2,0.6l4.2,0.6l4.2,0.6l4.2,0.6l4.2,0.6l4.2,0.6l4.2,0.6l4.2,0.6l4.2,0.6l4.2,0.6l4.2,0.6l4.2,0.6l4.2,0.6l4.2,0.6
			l4.2,0.6l4.2,0.6l4.2,0.6l4.2,0.6l4.2,0.6l4.2,0.6l4.2,0.6l4.2,0.6l4.2,0.6l4.2,0.6l4.2,0.6l4.2,0.6l4.2,0.6l4.2,0.6l4.2,0.6
			l4.2,0.6l4.2,0.6l4.2,0.6l4.2,0.6l4.2,0.6l4.2,0.6l4.2,0.6l4.2,0.6l4.2,0.6l4.2,0.6l4.2,0.6l4.2,0.6l4.2,0.6"/>
	</g>
</g>
<g id="patch_3">
	<path class="st20" d="M56.5,438.8V43.7"/>
</g>
<g id="patch_4">
	<path class="st20" d="M514.6,438.8V43.7"/>
</g>
<g id="patch_5">
	<path class="st20" d="M56.5,438.8h458.1"/>
</g>
<g id="patch_6">
	<path class="st20" d="M56.5,43.7h458.1"/>
</g>
<g id="PathCollection_1">
	<g>
		<defs>
			<rect id="SVGID_33_" x="56.5" y="43.7" width="458.1" height="395.1"/>
		</defs>
		<clipPath id="SVGID_34_">
			<use xlink:href="#SVGID_33_"  style="overflow:visible;"/>
		</clipPath>
		<g class="st21">
			<g>
				<path id="mc0ce47eec8" class="st22" d="M77.3,201.3c1.2,0,2.4-0.5,3.3-1.4s1.4-2.1,1.4-3.3s-0.5-2.4-1.4-3.3s-2.1-1.4-3.3-1.4
					s-2.4,0.5-3.3,1.4s-1.4,2.1-1.4,3.3s0.5,2.4,1.4,3.3S76.1,201.3,77.3,201.3z"/>
			</g>
			<g>
				<path id="mc0ce47eec8_1_" class="st22" d="M333.8,277.9c1.2,0,2.4-0.5,3.3-1.4s1.4-2.1,1.4-3.3c0-1.2-0.5-2.4-1.4-3.3
					s-2.1-1.4-3.3-1.4s-2.4,0.5-3.3,1.4s-1.4,2.1-1.4,3.3c0,1.2,0.5,2.4,1.4,3.3S332.5,277.9,333.8,277.9z"/>
			</g>
			<g>
				<path id="mc0ce47eec8_2_" class="st22" d="M493.8,145.1c1.2,0,2.4-0.5,3.3-1.4s1.4-2.1,1.4-3.3s-0.5-2.4-1.4-3.3
					s-2.1-1.4-3.3-1.4s-2.4,0.5-3.3,1.4s-1.4,2.1-1.4,3.3s0.5,2.4,1.4,3.3S492.5,145.1,493.8,145.1z"/>
			</g>
			<g>
				<path id="mc0ce47eec8_3_" class="st22" d="M203.3,127.6c1.2,0,2.4-0.5,3.3-1.4c0.9-0.9,1.4-2.1,1.4-3.3s-0.5-2.4-1.4-3.3
					c-0.9-0.9-2.1-1.4-3.3-1.4s-2.4,0.5-3.3,1.4c-0.9,0.9-1.4,2.1-1.4,3.3s0.5,2.4,1.4,3.3C200.9,127.1,202.1,127.6,203.3,127.6z"/>
			</g>
			<g>
				<path id="mc0ce47eec8_4_" class="st22" d="M386.6,357.6c1.2,0,2.4-0.5,3.3-1.4s1.4-2.1,1.4-3.3c0-1.2-0.5-2.4-1.4-3.3
					s-2.1-1.4-3.3-1.4s-2.4,0.5-3.3,1.4s-1.4,2.1-1.4,3.3c0,1.2,0.5,2.4,1.4,3.3S385.4,357.6,386.6,357.6z"/>
			</g>
			<g>
				<path id="mc0ce47eec8_5_" class="st22" d="M274.6,233.4c1.2,0,2.4-0.5,3.3-1.4s1.4-2.1,1.4-3.3s-0.5-2.4-1.4-3.3
					s-2.1-1.4-3.3-1.4s-2.4,0.5-3.3,1.4s-1.4,2.1-1.4,3.3s0.5,2.4,1.4,3.3S273.4,233.4,274.6,233.4z"/>
			</g>
			<g>
				<path id="mc0ce47eec8_6_" class="st22" d="M176.1,66.4c1.2,0,2.4-0.5,3.3-1.4s1.4-2.1,1.4-3.3s-0.5-2.4-1.4-3.3
					c-0.9-0.9-2.1-1.4-3.3-1.4s-2.4,0.5-3.3,1.4c-0.9,0.9-1.4,2.1-1.4,3.3s0.5,2.4,1.4,3.3S174.9,66.4,176.1,66.4z"/>
			</g>
			<g>
				<path id="mc0ce47eec8_7_" class="st22" d="M324.8,305.5c1.2,0,2.4-0.5,3.3-1.4s1.4-2.1,1.4-3.3c0-1.2-0.5-2.4-1.4-3.3
					s-2.1-1.4-3.3-1.4s-2.4,0.5-3.3,1.4s-1.4,2.1-1.4,3.3c0,1.2,0.5,2.4,1.4,3.3S323.6,305.5,324.8,305.5z"/>
			</g>
			<g>
				<path id="mc0ce47eec8_8_" class="st22" d="M234.2,425.6c1.2,0,2.4-0.5,3.3-1.4s1.4-2.1,1.4-3.3c0-1.2-0.5-2.4-1.4-3.3
					s-2.1-1.4-3.3-1.4s-2.4,0.5-3.3,1.4s-1.4,2.1-1.4,3.3c0,1.2,0.5,2.4,1.4,3.3S233,425.6,234.2,425.6z"/>
			</g>
			<g>
				<path id="mc0ce47eec8_9_" class="st22" d="M166.3,269.5c1.2,0,2.4-0.5,3.3-1.4s1.4-2.1,1.4-3.3c0-1.2-0.5-2.4-1.4-3.3
					s-2.1-1.4-3.3-1.4s-2.4,0.5-3.3,1.4s-1.4,2.1-1.4,3.3c0,1.2,0.5,2.4,1.4,3.3S165,269.5,166.3,269.5z"/>
			</g>
		</g>
	</g>
</g>
<g id="text_18">
	<text transform="matrix(1 0 0 1 82.3286 191.5755)" class="st3 st23">gigapath / phikon_v2</text>
</g>
<g id="text_19">
	<text transform="matrix(1 0 0 1 309.7853 267.2435)" class="st3 st23">hoptimus0 / gigapath</text>
</g>
<g id="text_20">
	<text transform="matrix(1 0 0 1 412.7744 134.4154)" class="st3 st23">hoptimus0 / hoptimus1</text>
</g>
<g id="text_21">
	<text transform="matrix(1 0 0 1 208.3415 117.9071)" class="st3 st23">hoptimus0 / phikon_v2</text>
</g>
<g id="text_22">
	<text transform="matrix(1 0 0 1 391.6235 347.88)" class="st3 st23">hoptimus0 / uni_v1</text>
</g>
<g id="text_23">
	<text transform="matrix(1 0 0 1 279.6106 223.6967)" class="st3 st23">hoptimus1 / gigapath</text>
</g>
<g id="text_24">
	<text transform="matrix(1 0 0 1 181.0986 56.6643)" class="st3 st23">hoptimus1 / phikon_v2</text>
</g>
<g id="text_25">
	<text transform="matrix(1 0 0 1 329.7941 295.8028)" class="st3 st23">hoptimus1 / uni_v1</text>
</g>
<g id="text_26">
	<text transform="matrix(1 0 0 1 239.2401 415.8824)" class="st3 st23">uni_v1 / gigapath</text>
</g>
<g id="text_27">
	<text transform="matrix(1 0 0 1 171.2756 259.8279)" class="st3 st23">uni_v1 / phikon_v2</text>
</g>
<g id="text_28">
	<text transform="matrix(1 0 0 1 125.3671 17.078)" class="st3 st24">CKA and feature-level Spearman correspondence</text>
	<text transform="matrix(1 0 0 1 82.0954 31.7034)" class="st3 st24">Pairs=10 | Pearson r=-0.167 | Spearman rho=-0.333, p=0.347</text>
</g>
</svg>
