<?xml version="1.0" encoding="utf-8"?>
<!-- Generator: Adobe Illustrator 25.0.0, SVG Export Plug-In . SVG Version: 6.00 Build 0)  -->
<svg version="1.1" id="图层_1" xmlns="http://www.w3.org/2000/svg" xmlns:xlink="http://www.w3.org/1999/xlink" x="0px" y="0px"
	 viewBox="0 0 800.4 584.4" style="enable-background:new 0 0 800.4 584.4;" xml:space="preserve">
<style type="text/css">
	.st0{fill:#FFFFFF;}
	
		.st1{clip-path:url(#SVGID_2_);fill:none;stroke:#B0B0B0;stroke-width:0.8;stroke-linecap:square;stroke-linejoin:round;stroke-opacity:0.25;}
	.st2{stroke:#000000;stroke-width:0.8;stroke-linejoin:round;}
	.st3{font-family:'DejaVuSansMono';}
	.st4{font-size:10px;}
	
		.st5{clip-path:url(#SVGID_4_);fill:none;stroke:#B0B0B0;stroke-width:0.8;stroke-linecap:square;stroke-linejoin:round;stroke-opacity:0.25;}
	
		.st6{clip-path:url(#SVGID_6_);fill:none;stroke:#B0B0B0;stroke-width:0.8;stroke-linecap:square;stroke-linejoin:round;stroke-opacity:0.25;}
	
		.st7{clip-path:url(#SVGID_8_);fill:none;stroke:#B0B0B0;stroke-width:0.8;stroke-linecap:square;stroke-linejoin:round;stroke-opacity:0.25;}
	
		.st8{clip-path:url(#SVGID_10_);fill:none;stroke:#B0B0B0;stroke-width:0.8;stroke-linecap:square;stroke-linejoin:round;stroke-opacity:0.25;}
	
		.st9{clip-path:url(#SVGID_12_);fill:none;stroke:#B0B0B0;stroke-width:0.8;stroke-linecap:square;stroke-linejoin:round;stroke-opacity:0.25;}
	
		.st10{clip-path:url(#SVGID_14_);fill:none;stroke:#B0B0B0;stroke-width:0.8;stroke-linecap:square;stroke-linejoin:round;stroke-opacity:0.25;}
	
		.st11{clip-path:url(#SVGID_16_);fill:none;stroke:#B0B0B0;stroke-width:0.8;stroke-linecap:square;stroke-linejoin:round;stroke-opacity:0.25;}
	
		.st12{clip-path:url(#SVGID_18_);fill:none;stroke:#B0B0B0;stroke-width:0.8;stroke-linecap:square;stroke-linejoin:round;stroke-opacity:0.25;}
	
		.st13{clip-path:url(#SVGID_20_);fill:none;stroke:#B0B0B0;stroke-width:0.8;stroke-linecap:square;stroke-linejoin:round;stroke-opacity:0.25;}
	.st14{clip-path:url(#SVGID_22_);fill:none;stroke:#374151;stroke-linejoin:round;stroke-dasharray:3.7,1.6;}
	.st15{clip-path:url(#SVGID_24_);fill:none;stroke:#374151;stroke-linejoin:round;stroke-dasharray:3.7,1.6;}
	.st16{fill:none;stroke:#000000;stroke-width:0.8;stroke-linecap:square;}
	.st17{clip-path:url(#SVGID_26_);}
	.st18{fill:#D97706;stroke:#FFFFFF;stroke-width:1.2;stroke-linejoin:round;}
	.st19{font-family:'ArialMT';}
	.st20{font-size:12px;}
	.st21{clip-path:url(#SVGID_28_);}
	.st22{clip-path:url(#SVGID_30_);}
	.st23{fill:#6B7280;stroke:#FFFFFF;stroke-width:1.2;stroke-linejoin:round;}
	.st24{clip-path:url(#SVGID_32_);}
	.st25{fill:#2563EB;stroke:#FFFFFF;stroke-width:1.2;stroke-linejoin:round;}
	.st26{clip-path:url(#SVGID_34_);}
	.st27{fill:#16803C;stroke:#FFFFFF;stroke-width:1.2;stroke-linejoin:round;}
	.st28{clip-path:url(#SVGID_36_);}
	.st29{clip-path:url(#SVGID_38_);}
	.st30{clip-path:url(#SVGID_40_);}
	.st31{clip-path:url(#SVGID_42_);}
	.st32{clip-path:url(#SVGID_44_);}
	.st33{fill:#2563EB;}
	.st34{fill:#16803C;}
	.st35{fill:#6B7280;}
	.st36{fill:#D97706;}
	.st37{fill:#4B5563;}
	.st38{font-size:8px;}
	.st39{fill:none;stroke:#000000;stroke-width:1.5;stroke-linecap:square;stroke-linejoin:round;stroke-opacity:0;}
	.st40{fill:#D97706;stroke:#FFFFFF;stroke-linejoin:round;}
	.st41{font-size:7px;}
	.st42{fill:#6B7280;stroke:#FFFFFF;stroke-linejoin:round;}
	.st43{fill:#2563EB;stroke:#FFFFFF;stroke-linejoin:round;}
	.st44{fill:#16803C;stroke:#FFFFFF;stroke-linejoin:round;}
</style>
<g id="patch_1">
	<path class="st0" d="M0,584.4h800.4V0H0V584.4z"/>
</g>
<g id="patch_2">
	<path class="st0" d="M50.1,546.8H596V25.6H50.1V546.8z"/>
</g>
<g id="matplotlib.axis_1">
	<g id="xtick_1">
		<g id="line2d_1">
			<g>
				<g>
					<defs>
						<rect id="SVGID_1_" x="50.1" y="25.6" width="545.9" height="521.2"/>
					</defs>
					<clipPath id="SVGID_2_">
						<use xlink:href="#SVGID_1_"  style="overflow:visible;"/>
					</clipPath>
					<path class="st1" d="M55,546.8V25.6"/>
				</g>
			</g>
		</g>
		<g id="line2d_2">
			<g>
				<g>
					<path id="m637e311741" class="st2" d="M55,546.8v3.5"/>
				</g>
			</g>
		</g>
		<g id="text_1">
			<text transform="matrix(1 0 0 1 42.9616 561.4417)" class="st3 st4">0.75</text>
		</g>
	</g>
	<g id="xtick_2">
		<g id="line2d_3">
			<g>
				<g>
					<defs>
						<rect id="SVGID_3_" x="50.1" y="25.6" width="545.9" height="521.2"/>
					</defs>
					<clipPath id="SVGID_4_">
						<use xlink:href="#SVGID_3_"  style="overflow:visible;"/>
					</clipPath>
					<path class="st5" d="M173,546.8V25.6"/>
				</g>
			</g>
		</g>
		<g id="line2d_4">
			<g>
				<g>
					<path id="m637e311741_1_" class="st2" d="M173,546.8v3.5"/>
				</g>
			</g>
		</g>
		<g id="text_2">
			<text transform="matrix(1 0 0 1 161.0054 561.4417)" class="st3 st4">0.80</text>
		</g>
	</g>
	<g id="xtick_3">
		<g id="line2d_5">
			<g>
				<g>
					<defs>
						<rect id="SVGID_5_" x="50.1" y="25.6" width="545.9" height="521.2"/>
					</defs>
					<clipPath id="SVGID_6_">
						<use xlink:href="#SVGID_5_"  style="overflow:visible;"/>
					</clipPath>
					<path class="st6" d="M291.1,546.8V25.6"/>
				</g>
			</g>
		</g>
		<g id="line2d_6">
			<g>
				<g>
					<path id="m637e311741_2_" class="st2" d="M291.1,546.8v3.5"/>
				</g>
			</g>
		</g>
		<g id="text_3">
			<text transform="matrix(1 0 0 1 279.0492 561.4417)" class="st3 st4">0.85</text>
		</g>
	</g>
	<g id="xtick_4">
		<g id="line2d_7">
			<g>
				<g>
					<defs>
						<rect id="SVGID_7_" x="50.1" y="25.6" width="545.9" height="521.2"/>
					</defs>
					<clipPath id="SVGID_8_">
						<use xlink:href="#SVGID_7_"  style="overflow:visible;"/>
					</clipPath>
					<path class="st7" d="M409.1,546.8V25.6"/>
				</g>
			</g>
		</g>
		<g id="line2d_8">
			<g>
				<g>
					<path id="m637e311741_3_" class="st2" d="M409.1,546.8v3.5"/>
				</g>
			</g>
		</g>
		<g id="text_4">
			<text transform="matrix(1 0 0 1 397.093 561.4417)" class="st3 st4">0.90</text>
		</g>
	</g>
	<g id="xtick_5">
		<g id="line2d_9">
			<g>
				<g>
					<defs>
						<rect id="SVGID_9_" x="50.1" y="25.6" width="545.9" height="521.2"/>
					</defs>
					<clipPath id="SVGID_10_">
						<use xlink:href="#SVGID_9_"  style="overflow:visible;"/>
					</clipPath>
					<path class="st8" d="M527.2,546.8V25.6"/>
				</g>
			</g>
		</g>
		<g id="line2d_10">
			<g>
				<g>
					<path id="m637e311741_4_" class="st2" d="M527.2,546.8v3.5"/>
				</g>
			</g>
		</g>
		<g id="text_5">
			<text transform="matrix(1 0 0 1 515.1367 561.4417)" class="st3 st4">0.95</text>
		</g>
	</g>
	<g id="text_6">
		<text transform="matrix(1 0 0 1 250.8608 575.1198)" class="st3 st4">Mean pairwise Linear CKA</text>
	</g>
</g>
<g id="matplotlib.axis_2">
	<g id="ytick_1">
		<g id="line2d_11">
			<g>
				<g>
					<defs>
						<rect id="SVGID_11_" x="50.1" y="25.6" width="545.9" height="521.2"/>
					</defs>
					<clipPath id="SVGID_12_">
						<use xlink:href="#SVGID_11_"  style="overflow:visible;"/>
					</clipPath>
					<path class="st9" d="M50.1,508.4H596"/>
				</g>
			</g>
		</g>
		<g id="line2d_12">
			<g>
				<g>
					<path id="m93db6dfd37" class="st2" d="M50.1,508.4h-3.5"/>
				</g>
			</g>
		</g>
		<g id="text_7">
			<text transform="matrix(1 0 0 1 19.0617 512.1667)" class="st3 st4">0.08</text>
		</g>
	</g>
	<g id="ytick_2">
		<g id="line2d_13">
			<g>
				<g>
					<defs>
						<rect id="SVGID_13_" x="50.1" y="25.6" width="545.9" height="521.2"/>
					</defs>
					<clipPath id="SVGID_14_">
						<use xlink:href="#SVGID_13_"  style="overflow:visible;"/>
					</clipPath>
					<path class="st10" d="M50.1,394H596"/>
				</g>
			</g>
		</g>
		<g id="line2d_14">
			<g>
				<g>
					<path id="m93db6dfd37_1_" class="st2" d="M50.1,394h-3.5"/>
				</g>
			</g>
		</g>
		<g id="text_8">
			<text transform="matrix(1 0 0 1 19.0617 397.8134)" class="st3 st4">0.10</text>
		</g>
	</g>
	<g id="ytick_3">
		<g id="line2d_15">
			<g>
				<g>
					<defs>
						<rect id="SVGID_15_" x="50.1" y="25.6" width="545.9" height="521.2"/>
					</defs>
					<clipPath id="SVGID_16_">
						<use xlink:href="#SVGID_15_"  style="overflow:visible;"/>
					</clipPath>
					<path class="st11" d="M50.1,279.7H596"/>
				</g>
			</g>
		</g>
		<g id="line2d_16">
			<g>
				<g>
					<path id="m93db6dfd37_2_" class="st2" d="M50.1,279.7h-3.5"/>
				</g>
			</g>
		</g>
		<g id="text_9">
			<text transform="matrix(1 0 0 1 19.0617 283.4601)" class="st3 st4">0.12</text>
		</g>
	</g>
	<g id="ytick_4">
		<g id="line2d_17">
			<g>
				<g>
					<defs>
						<rect id="SVGID_17_" x="50.1" y="25.6" width="545.9" height="521.2"/>
					</defs>
					<clipPath id="SVGID_18_">
						<use xlink:href="#SVGID_17_"  style="overflow:visible;"/>
					</clipPath>
					<path class="st12" d="M50.1,165.3H596"/>
				</g>
			</g>
		</g>
		<g id="line2d_18">
			<g>
				<g>
					<path id="m93db6dfd37_3_" class="st2" d="M50.1,165.3h-3.5"/>
				</g>
			</g>
		</g>
		<g id="text_10">
			<text transform="matrix(1 0 0 1 19.0617 169.1067)" class="st3 st4">0.14</text>
		</g>
	</g>
	<g id="ytick_5">
		<g id="line2d_19">
			<g>
				<g>
					<defs>
						<rect id="SVGID_19_" x="50.1" y="25.6" width="545.9" height="521.2"/>
					</defs>
					<clipPath id="SVGID_20_">
						<use xlink:href="#SVGID_19_"  style="overflow:visible;"/>
					</clipPath>
					<path class="st13" d="M50.1,51H596"/>
				</g>
			</g>
		</g>
		<g id="line2d_20">
			<g>
				<g>
					<path id="m93db6dfd37_4_" class="st2" d="M50.1,51h-3.5"/>
				</g>
			</g>
		</g>
		<g id="text_11">
			<text transform="matrix(1 0 0 1 19.0617 54.7533)" class="st3 st4">0.16</text>
		</g>
	</g>
	<g id="text_12">
		<text transform="matrix(6.123234e-17 -1 1 6.123234e-17 14.7985 361.4902)" class="st3 st4">Mean absolute interaction</text>
	</g>
</g>
<g id="line2d_21">
	<g>
		<g>
			<defs>
				<rect id="SVGID_21_" x="50.1" y="25.6" width="545.9" height="521.2"/>
			</defs>
			<clipPath id="SVGID_22_">
				<use xlink:href="#SVGID_21_"  style="overflow:visible;"/>
			</clipPath>
			<path class="st14" d="M258.8,546.8V25.6"/>
		</g>
	</g>
</g>
<g id="line2d_22">
	<g>
		<g>
			<defs>
				<rect id="SVGID_23_" x="50.1" y="25.6" width="545.9" height="521.2"/>
			</defs>
			<clipPath id="SVGID_24_">
				<use xlink:href="#SVGID_23_"  style="overflow:visible;"/>
			</clipPath>
			<path class="st15" d="M50.1,255.6H596"/>
		</g>
	</g>
</g>
<g id="patch_3">
	<path class="st16" d="M50.1,546.8V25.6"/>
</g>
<g id="patch_4">
	<path class="st16" d="M596.1,546.8V25.6"/>
</g>
<g id="patch_5">
	<path class="st16" d="M50.1,546.8H596"/>
</g>
<g id="patch_6">
	<path class="st16" d="M50.1,25.6H596"/>
</g>
<g id="PathCollection_1">
	<g>
		<g>
			<defs>
				<rect id="SVGID_25_" x="50.1" y="25.6" width="545.9" height="521.2"/>
			</defs>
			<clipPath id="SVGID_26_">
				<use xlink:href="#SVGID_25_"  style="overflow:visible;"/>
			</clipPath>
			<g class="st17">
				<g>
					<path id="m7390abdc7f" class="st18" d="M307.8,437.6c1.8,0,3.6-0.7,4.9-2s2-3,2-4.9s-0.7-3.6-2-4.9s-3-2-4.9-2s-3.6,0.7-4.9,2
						s-2,3-2,4.9s0.7,3.6,2,4.9C304.2,436.8,306,437.6,307.8,437.6z"/>
				</g>
			</g>
		</g>
	</g>
</g>
<g id="text_13">
	<text transform="matrix(1 0 0 1 304.4642 435.873)" class="st0 st19 st20">1</text>
</g>
<g id="PathCollection_2">
	<g>
		<g>
			<defs>
				<rect id="SVGID_27_" x="50.1" y="25.6" width="545.9" height="521.2"/>
			</defs>
			<clipPath id="SVGID_28_">
				<use xlink:href="#SVGID_27_"  style="overflow:visible;"/>
			</clipPath>
			<g class="st21">
				<g>
					<path id="m7390abdc7f_1_" class="st18" d="M311.3,430c1.8,0,3.6-0.7,4.9-2s2-3,2-4.9s-0.7-3.6-2-4.9s-3-2-4.9-2s-3.6,0.7-4.9,2
						s-2,3-2,4.9s0.7,3.6,2,4.9C307.7,429.3,309.4,430,311.3,430z"/>
				</g>
			</g>
		</g>
	</g>
</g>
<g id="text_14">
	<text transform="matrix(1 0 0 1 307.9148 426.3023)" class="st0 st19 st20">2</text>
</g>
<g id="PathCollection_3">
	<g>
		<g>
			<defs>
				<rect id="SVGID_29_" x="50.1" y="25.6" width="545.9" height="521.2"/>
			</defs>
			<clipPath id="SVGID_30_">
				<use xlink:href="#SVGID_29_"  style="overflow:visible;"/>
			</clipPath>
			<g class="st22">
				<g>
					<path id="m11ac1d1a51" class="st23" d="M209.9,530c1.8,0,3.6-0.7,4.9-2c1.3-1.3,2-3,2-4.9s-0.7-3.6-2-4.9c-1.3-1.3-3-2-4.9-2
						s-3.6,0.7-4.9,2c-1.3,1.3-2,3-2,4.9s0.7,3.6,2,4.9C206.3,529.3,208.1,530,209.9,530z"/>
				</g>
			</g>
		</g>
	</g>
</g>
<g id="text_15">
	<text transform="matrix(1 0 0 1 206.5444 526.359)" class="st0 st19 st20">3</text>
</g>
<g id="PathCollection_4">
	<g>
		<g>
			<defs>
				<rect id="SVGID_31_" x="50.1" y="25.6" width="545.9" height="521.2"/>
			</defs>
			<clipPath id="SVGID_32_">
				<use xlink:href="#SVGID_31_"  style="overflow:visible;"/>
			</clipPath>
			<g class="st24">
				<g>
					<path id="m809d1218a4" class="st25" d="M75,88.9c1.8,0,3.6-0.7,4.9-2s2-3,2-4.9s-0.7-3.6-2-4.9s-3-2-4.9-2s-3.6,0.7-4.9,2
						s-2,3-2,4.9s0.7,3.6,2,4.9S73.1,88.9,75,88.9z"/>
				</g>
			</g>
		</g>
	</g>
</g>
<g id="text_16">
	<text transform="matrix(1 0 0 1 71.6216 85.2509)" class="st0 st19 st20">4</text>
</g>
<g id="PathCollection_5">
	<g>
		<g>
			<defs>
				<rect id="SVGID_33_" x="50.1" y="25.6" width="545.9" height="521.2"/>
			</defs>
			<clipPath id="SVGID_34_">
				<use xlink:href="#SVGID_33_"  style="overflow:visible;"/>
			</clipPath>
			<g class="st26">
				<g>
					<path id="ma8bcb2cc22" class="st27" d="M571.3,191.4c1.8,0,3.6-0.7,4.9-2c1.3-1.3,2-3,2-4.9s-0.7-3.6-2-4.9c-1.3-1.3-3-2-4.9-2
						s-3.6,0.7-4.9,2c-1.3,1.3-2,3-2,4.9s0.7,3.6,2,4.9C567.7,190.6,569.4,191.4,571.3,191.4z"/>
				</g>
			</g>
		</g>
	</g>
</g>
<g id="text_17">
	<text transform="matrix(1 0 0 1 567.9182 187.6693)" class="st0 st19 st20">5</text>
</g>
<g id="PathCollection_6">
	<g>
		<g>
			<defs>
				<rect id="SVGID_35_" x="50.1" y="25.6" width="545.9" height="521.2"/>
			</defs>
			<clipPath id="SVGID_36_">
				<use xlink:href="#SVGID_35_"  style="overflow:visible;"/>
			</clipPath>
			<g class="st28">
				<g>
					<path id="m7390abdc7f_2_" class="st18" d="M449.9,338.3c1.8,0,3.6-0.7,4.9-2s2-3,2-4.9s-0.7-3.6-2-4.9s-3-2-4.9-2
						s-3.6,0.7-4.9,2s-2,3-2,4.9s0.7,3.6,2,4.9C446.3,337.5,448,338.3,449.9,338.3z"/>
				</g>
			</g>
		</g>
	</g>
</g>
<g id="text_18">
	<text transform="matrix(1 0 0 1 446.5237 334.5795)" class="st0 st19 st20">6</text>
</g>
<g id="PathCollection_7">
	<g>
		<g>
			<defs>
				<rect id="SVGID_37_" x="50.1" y="25.6" width="545.9" height="521.2"/>
			</defs>
			<clipPath id="SVGID_38_">
				<use xlink:href="#SVGID_37_"  style="overflow:visible;"/>
			</clipPath>
			<g class="st29">
				<g>
					<path id="m809d1218a4_1_" class="st25" d="M198.5,56.2c1.8,0,3.6-0.7,4.9-2c1.3-1.3,2-3,2-4.9s-0.7-3.6-2-4.9
						c-1.3-1.3-3-2-4.9-2s-3.6,0.7-4.9,2c-1.3,1.3-2,3-2,4.9s0.7,3.6,2,4.9C194.9,55.5,196.6,56.2,198.5,56.2z"/>
				</g>
			</g>
		</g>
	</g>
</g>
<g id="text_19">
	<text transform="matrix(1 0 0 1 195.1392 53.5237)" class="st0 st19 st20">7</text>
</g>
<g id="PathCollection_8">
	<g>
		<g>
			<defs>
				<rect id="SVGID_39_" x="50.1" y="25.6" width="545.9" height="521.2"/>
			</defs>
			<clipPath id="SVGID_40_">
				<use xlink:href="#SVGID_39_"  style="overflow:visible;"/>
			</clipPath>
			<g class="st30">
				<g>
					<path id="m7390abdc7f_3_" class="st18" d="M470.7,314.2c1.8,0,3.6-0.7,4.9-2s2-3,2-4.9s-0.7-3.6-2-4.9s-3-2-4.9-2
						s-3.6,0.7-4.9,2s-2,3-2,4.9s0.7,3.6,2,4.9S468.8,314.2,470.7,314.2z"/>
				</g>
			</g>
		</g>
	</g>
</g>
<g id="text_20">
	<text transform="matrix(1 0 0 1 467.3164 310.5643)" class="st0 st19 st20">8</text>
</g>
<g id="PathCollection_9">
	<g>
		<g>
			<defs>
				<rect id="SVGID_41_" x="50.1" y="25.6" width="545.9" height="521.2"/>
			</defs>
			<clipPath id="SVGID_42_">
				<use xlink:href="#SVGID_41_"  style="overflow:visible;"/>
			</clipPath>
			<g class="st31">
				<g>
					<path id="m809d1218a4_2_" class="st25" d="M182.1,69.2c1.8,0,3.6-0.7,4.9-2s2-3,2-4.9c0-1.8-0.7-3.6-2-4.9c-1.3-1.3-3-2-4.9-2
						s-3.6,0.7-4.9,2c-1.3,1.3-2,3-2,4.9c0,1.8,0.7,3.6,2,4.9S180.3,69.2,182.1,69.2z"/>
				</g>
			</g>
		</g>
	</g>
</g>
<g id="text_21">
	<text transform="matrix(1 0 0 1 178.7577 65.5466)" class="st0 st19 st20">9</text>
</g>
<g id="PathCollection_10">
	<g>
		<g>
			<defs>
				<rect id="SVGID_43_" x="50.1" y="25.6" width="545.9" height="521.2"/>
			</defs>
			<clipPath id="SVGID_44_">
				<use xlink:href="#SVGID_43_"  style="overflow:visible;"/>
			</clipPath>
			<g class="st32">
				<g>
					<path id="m809d1218a4_3_" class="st25" d="M140.6,210.7c1.8,0,3.6-0.7,4.9-2s2-3,2-4.9s-0.7-3.6-2-4.9s-3-2-4.9-2
						s-3.6,0.7-4.9,2s-2,3-2,4.9s0.7,3.6,2,4.9S138.8,210.7,140.6,210.7z"/>
				</g>
			</g>
		</g>
	</g>
</g>
<g id="text_22">
	<text transform="matrix(1 0 0 1 132.9266 207.0094)" class="st0 st19 st20">10</text>
</g>
<g id="text_23">
	<text transform="matrix(1 0 0 1 58.3326 41.0411)" class="st33 st19 st20">Low CKA / High interaction</text>
</g>
<g id="text_24">
	<text transform="matrix(1 0 0 1 442.4749 41.0411)" class="st34 st19 st20">High CKA / High interaction</text>
</g>
<g id="text_25">
	<text transform="matrix(1 0 0 1 58.3326 536.9453)" class="st35 st19 st20">Low CKA / Low interaction</text>
</g>
<g id="text_26">
	<text transform="matrix(1 0 0 1 445.1409 536.8672)" class="st36 st19 st20">High CKA / Low interaction</text>
</g>
<g id="text_27">
	<text transform="matrix(1 0 0 1 543.1096 13.3137)" class="st37 st3 st38">Median CKA=0.8363 | Median interaction=0.1242</text>
</g>
<g id="legend_1">
	<g id="line2d_23">
		<path class="st39" d="M604.3,238.4h7h7"/>
		<g>
			<g>
				<path id="mf5ad70fadd" class="st40" d="M611.3,242.9c1.2,0,2.3-0.5,3.2-1.3s1.3-2,1.3-3.2s-0.5-2.3-1.3-3.2s-2-1.3-3.2-1.3
					s-2.3,0.5-3.2,1.3s-1.3,2-1.3,3.2s0.5,2.3,1.3,3.2S610.1,242.9,611.3,242.9z"/>
			</g>
		</g>
	</g>
	<g id="text_29">
		<text transform="matrix(1 0 0 1 623.8884 240.8334)" class="st3 st41">1. CONCH-v1.5 || H-optimus-0</text>
	</g>
	<g id="line2d_24">
		<path class="st39" d="M604.3,248.9h7h7"/>
		<g>
			<g>
				<path id="mf5ad70fadd_1_" class="st40" d="M611.3,253.4c1.2,0,2.3-0.5,3.2-1.3s1.3-2,1.3-3.2s-0.5-2.3-1.3-3.2s-2-1.3-3.2-1.3
					s-2.3,0.5-3.2,1.3s-1.3,2-1.3,3.2s0.5,2.3,1.3,3.2S610.1,253.4,611.3,253.4z"/>
			</g>
		</g>
	</g>
	<g id="text_30">
		<text transform="matrix(1 0 0 1 623.8884 251.3334)" class="st3 st41">2. CONCH-v1.5 || H-optimus-1</text>
	</g>
	<g id="line2d_25">
		<path class="st39" d="M604.3,259.4h7h7"/>
		<g>
			<g>
				<path id="m9ab29d5ac7" class="st42" d="M611.3,263.9c1.2,0,2.3-0.5,3.2-1.3s1.3-2,1.3-3.2s-0.5-2.3-1.3-3.2s-2-1.3-3.2-1.3
					s-2.3,0.5-3.2,1.3c-0.9,0.8-1.3,2-1.3,3.2s0.5,2.3,1.3,3.2S610.1,263.9,611.3,263.9z"/>
			</g>
		</g>
	</g>
	<g id="text_31">
		<text transform="matrix(1 0 0 1 623.8884 261.8334)" class="st3 st41">3. CONCH-v1.5 || UNI-v2</text>
	</g>
	<g id="line2d_26">
		<path class="st39" d="M604.3,269.9h7h7"/>
		<g>
			<g>
				<path id="m5a0bf45703" class="st43" d="M611.3,274.4c1.2,0,2.3-0.5,3.2-1.3s1.3-2,1.3-3.2s-0.5-2.3-1.3-3.2s-2-1.3-3.2-1.3
					s-2.3,0.5-3.2,1.3s-1.3,2-1.3,3.2s0.5,2.3,1.3,3.2S610.1,274.4,611.3,274.4z"/>
			</g>
		</g>
	</g>
	<g id="text_32">
		<text transform="matrix(1 0 0 1 623.8884 272.3334)" class="st3 st41">4. CONCH-v1.5 || Virchow2</text>
	</g>
	<g id="line2d_27">
		<path class="st39" d="M604.3,280.4h7h7"/>
		<g>
			<g>
				<path id="m8e979bdaa4" class="st44" d="M611.3,284.9c1.2,0,2.3-0.5,3.2-1.3s1.3-2,1.3-3.2s-0.5-2.3-1.3-3.2s-2-1.3-3.2-1.3
					s-2.3,0.5-3.2,1.3s-1.3,2-1.3,3.2s0.5,2.3,1.3,3.2S610.1,284.9,611.3,284.9z"/>
			</g>
		</g>
	</g>
	<g id="text_33">
		<text transform="matrix(1 0 0 1 623.8884 282.8334)" class="st3 st41">5. H-optimus-0 || H-optimus-1</text>
	</g>
	<g id="line2d_28">
		<path class="st39" d="M604.3,290.9h7h7"/>
		<g>
			<g>
				<path id="mf5ad70fadd_2_" class="st40" d="M611.3,295.4c1.2,0,2.3-0.5,3.2-1.3s1.3-2,1.3-3.2s-0.5-2.3-1.3-3.2s-2-1.3-3.2-1.3
					s-2.3,0.5-3.2,1.3s-1.3,2-1.3,3.2s0.5,2.3,1.3,3.2S610.1,295.4,611.3,295.4z"/>
			</g>
		</g>
	</g>
	<g id="text_34">
		<text transform="matrix(1 0 0 1 623.8884 293.3334)" class="st3 st41">6. H-optimus-0 || UNI-v2</text>
	</g>
	<g id="line2d_29">
		<path class="st39" d="M604.3,301.4h7h7"/>
		<g>
			<g>
				<path id="m5a0bf45703_1_" class="st43" d="M611.3,305.9c1.2,0,2.3-0.5,3.2-1.3s1.3-2,1.3-3.2s-0.5-2.3-1.3-3.2s-2-1.3-3.2-1.3
					s-2.3,0.5-3.2,1.3s-1.3,2-1.3,3.2s0.5,2.3,1.3,3.2S610.1,305.9,611.3,305.9z"/>
			</g>
		</g>
	</g>
	<g id="text_35">
		<text transform="matrix(1 0 0 1 623.8884 303.8334)" class="st3 st41">7. H-optimus-0 || Virchow2</text>
	</g>
	<g id="line2d_30">
		<path class="st39" d="M604.3,311.9h7h7"/>
		<g>
			<g>
				<path id="mf5ad70fadd_3_" class="st40" d="M611.3,316.4c1.2,0,2.3-0.5,3.2-1.3s1.3-2,1.3-3.2s-0.5-2.3-1.3-3.2s-2-1.3-3.2-1.3
					s-2.3,0.5-3.2,1.3s-1.3,2-1.3,3.2s0.5,2.3,1.3,3.2S610.1,316.4,611.3,316.4z"/>
			</g>
		</g>
	</g>
	<g id="text_36">
		<text transform="matrix(1 0 0 1 623.8884 314.3334)" class="st3 st41">8. H-optimus-1 || UNI-v2</text>
	</g>
	<g id="line2d_31">
		<path class="st39" d="M604.3,322.4h7h7"/>
		<g>
			<g>
				<path id="m5a0bf45703_2_" class="st43" d="M611.3,326.9c1.2,0,2.3-0.5,3.2-1.3s1.3-2,1.3-3.2s-0.5-2.3-1.3-3.2s-2-1.3-3.2-1.3
					s-2.3,0.5-3.2,1.3s-1.3,2-1.3,3.2s0.5,2.3,1.3,3.2S610.1,326.9,611.3,326.9z"/>
			</g>
		</g>
	</g>
	<g id="text_37">
		<text transform="matrix(1 0 0 1 623.8884 324.8334)" class="st3 st41">9. H-optimus-1 || Virchow2</text>
	</g>
	<g id="line2d_32">
		<path class="st39" d="M604.3,332.9h7h7"/>
		<g>
			<g>
				<path id="m5a0bf45703_3_" class="st43" d="M611.3,337.4c1.2,0,2.3-0.5,3.2-1.3s1.3-2,1.3-3.2s-0.5-2.3-1.3-3.2s-2-1.3-3.2-1.3
					s-2.3,0.5-3.2,1.3s-1.3,2-1.3,3.2s0.5,2.3,1.3,3.2S610.1,337.4,611.3,337.4z"/>
			</g>
		</g>
	</g>
	<g id="text_38">
		<text transform="matrix(1 0 0 1 623.8884 335.3334)" class="st3 st41">10. UNI-v2 || Virchow2</text>
	</g>
</g>
</svg>
