<?xml version="1.0" encoding="utf-8" standalone="no"?>
<!DOCTYPE svg PUBLIC "-//W3C//DTD SVG 1.1//EN"
  "http://www.w3.org/Graphics/SVG/1.1/DTD/svg11.dtd">
<svg xmlns:xlink="http://www.w3.org/1999/xlink" width="800.399496pt" height="584.399525pt" viewBox="0 0 800.399496 584.399525" xmlns="http://www.w3.org/2000/svg" version="1.1">
 <metadata>
  <rdf:RDF xmlns:dc="http://purl.org/dc/elements/1.1/" xmlns:cc="http://creativecommons.org/ns#" xmlns:rdf="http://www.w3.org/1999/02/22-rdf-syntax-ns#">
   <cc:Work>
    <dc:type rdf:resource="http://purl.org/dc/dcmitype/StillImage"/>
    <dc:date>2026-08-11T02:42:35.135826</dc:date>
    <dc:format>image/svg+xml</dc:format>
    <dc:creator>
     <cc:Agent>
      <dc:title>Matplotlib v3.9.2, https://matplotlib.org/</dc:title>
     </cc:Agent>
    </dc:creator>
   </cc:Work>
  </rdf:RDF>
 </metadata>
 <defs>
  <style type="text/css">*{stroke-linejoin: round; stroke-linecap: butt}</style>
 </defs>
 <g id="figure_1">
  <g id="patch_1">
   <path d="M 0 584.399525 
L 800.399496 584.399525 
L 800.399496 0 
L 0 0 
z
" style="fill: #ffffff"/>
  </g>
  <g id="axes_1">
   <g id="patch_2">
    <path d="M 50.14375 546.843275 
L 596.070032 546.843275 
L 596.070032 25.624378 
L 50.14375 25.624378 
z
" style="fill: #ffffff"/>
   </g>
   <g id="matplotlib.axis_1">
    <g id="xtick_1">
     <g id="line2d_1">
      <path d="M 55.002625 546.843275 
L 55.002625 25.624378 
" clip-path="url(#pf216340e77)" style="fill: none; stroke: #b0b0b0; stroke-opacity: 0.25; stroke-width: 0.8; stroke-linecap: square"/>
     </g>
     <g id="line2d_2">
      <defs>
       <path id="m0de5f2e007" d="M 0 0 
L 0 3.5 
" style="stroke: #000000; stroke-width: 0.8"/>
      </defs>
      <g>
       <use xlink:href="#m0de5f2e007" x="55.002625" y="546.843275" style="stroke: #000000; stroke-width: 0.8"/>
      </g>
     </g>
     <g id="text_1">
      <text style="font: 10px 'DejaVu Sans', 'Bitstream Vera Sans', 'Computer Modern Sans Serif', 'Lucida Grande', 'Verdana', 'Geneva', 'Lucid', 'Arial', 'Helvetica', 'Avant Garde', sans-serif; text-anchor: middle" x="55.002625" y="561.441712" transform="rotate(-0 55.002625 561.441712)">0.75</text>
     </g>
    </g>
    <g id="xtick_2">
     <g id="line2d_3">
      <path d="M 173.046438 546.843275 
L 173.046438 25.624378 
" clip-path="url(#pf216340e77)" style="fill: none; stroke: #b0b0b0; stroke-opacity: 0.25; stroke-width: 0.8; stroke-linecap: square"/>
     </g>
     <g id="line2d_4">
      <g>
       <use xlink:href="#m0de5f2e007" x="173.046438" y="546.843275" style="stroke: #000000; stroke-width: 0.8"/>
      </g>
     </g>
     <g id="text_2">
      <text style="font: 10px 'DejaVu Sans', 'Bitstream Vera Sans', 'Computer Modern Sans Serif', 'Lucida Grande', 'Verdana', 'Geneva', 'Lucid', 'Arial', 'Helvetica', 'Avant Garde', sans-serif; text-anchor: middle" x="173.046438" y="561.441712" transform="rotate(-0 173.046438 561.441712)">0.80</text>
     </g>
    </g>
    <g id="xtick_3">
     <g id="line2d_5">
      <path d="M 291.090251 546.843275 
L 291.090251 25.624378 
" clip-path="url(#pf216340e77)" style="fill: none; stroke: #b0b0b0; stroke-opacity: 0.25; stroke-width: 0.8; stroke-linecap: square"/>
     </g>
     <g id="line2d_6">
      <g>
       <use xlink:href="#m0de5f2e007" x="291.090251" y="546.843275" style="stroke: #000000; stroke-width: 0.8"/>
      </g>
     </g>
     <g id="text_3">
      <text style="font: 10px 'DejaVu Sans', 'Bitstream Vera Sans', 'Computer Modern Sans Serif', 'Lucida Grande', 'Verdana', 'Geneva', 'Lucid', 'Arial', 'Helvetica', 'Avant Garde', sans-serif; text-anchor: middle" x="291.090251" y="561.441712" transform="rotate(-0 291.090251 561.441712)">0.85</text>
     </g>
    </g>
    <g id="xtick_4">
     <g id="line2d_7">
      <path d="M 409.134065 546.843275 
L 409.134065 25.624378 
" clip-path="url(#pf216340e77)" style="fill: none; stroke: #b0b0b0; stroke-opacity: 0.25; stroke-width: 0.8; stroke-linecap: square"/>
     </g>
     <g id="line2d_8">
      <g>
       <use xlink:href="#m0de5f2e007" x="409.134065" y="546.843275" style="stroke: #000000; stroke-width: 0.8"/>
      </g>
     </g>
     <g id="text_4">
      <text style="font: 10px 'DejaVu Sans', 'Bitstream Vera Sans', 'Computer Modern Sans Serif', 'Lucida Grande', 'Verdana', 'Geneva', 'Lucid', 'Arial', 'Helvetica', 'Avant Garde', sans-serif; text-anchor: middle" x="409.134065" y="561.441712" transform="rotate(-0 409.134065 561.441712)">0.90</text>
     </g>
    </g>
    <g id="xtick_5">
     <g id="line2d_9">
      <path d="M 527.177878 546.843275 
L 527.177878 25.624378 
" clip-path="url(#pf216340e77)" style="fill: none; stroke: #b0b0b0; stroke-opacity: 0.25; stroke-width: 0.8; stroke-linecap: square"/>
     </g>
     <g id="line2d_10">
      <g>
       <use xlink:href="#m0de5f2e007" x="527.177878" y="546.843275" style="stroke: #000000; stroke-width: 0.8"/>
      </g>
     </g>
     <g id="text_5">
      <text style="font: 10px 'DejaVu Sans', 'Bitstream Vera Sans', 'Computer Modern Sans Serif', 'Lucida Grande', 'Verdana', 'Geneva', 'Lucid', 'Arial', 'Helvetica', 'Avant Garde', sans-serif; text-anchor: middle" x="527.177878" y="561.441712" transform="rotate(-0 527.177878 561.441712)">0.95</text>
     </g>
    </g>
    <g id="text_6">
     <text style="font: 10px 'DejaVu Sans', 'Bitstream Vera Sans', 'Computer Modern Sans Serif', 'Lucida Grande', 'Verdana', 'Geneva', 'Lucid', 'Arial', 'Helvetica', 'Avant Garde', sans-serif; text-anchor: middle" x="323.106891" y="575.119837" transform="rotate(-0 323.106891 575.119837)">Mean pairwise Linear CKA</text>
    </g>
   </g>
   <g id="matplotlib.axis_2">
    <g id="ytick_1">
     <g id="line2d_11">
      <path d="M 50.14375 454.746297 
L 596.070032 454.746297 
" clip-path="url(#pf216340e77)" style="fill: none; stroke: #b0b0b0; stroke-opacity: 0.25; stroke-width: 0.8; stroke-linecap: square"/>
     </g>
     <g id="line2d_12">
      <defs>
       <path id="mcbf6649d6a" d="M 0 0 
L -3.5 0 
" style="stroke: #000000; stroke-width: 0.8"/>
      </defs>
      <g>
       <use xlink:href="#mcbf6649d6a" x="50.14375" y="454.746297" style="stroke: #000000; stroke-width: 0.8"/>
      </g>
     </g>
     <g id="text_7">
      <text style="font: 10px 'DejaVu Sans', 'Bitstream Vera Sans', 'Computer Modern Sans Serif', 'Lucida Grande', 'Verdana', 'Geneva', 'Lucid', 'Arial', 'Helvetica', 'Avant Garde', sans-serif; text-anchor: end" x="43.14375" y="458.545516" transform="rotate(-0 43.14375 458.545516)">0.04</text>
     </g>
    </g>
    <g id="ytick_2">
     <g id="line2d_13">
      <path d="M 50.14375 361.969961 
L 596.070032 361.969961 
" clip-path="url(#pf216340e77)" style="fill: none; stroke: #b0b0b0; stroke-opacity: 0.25; stroke-width: 0.8; stroke-linecap: square"/>
     </g>
     <g id="line2d_14">
      <g>
       <use xlink:href="#mcbf6649d6a" x="50.14375" y="361.969961" style="stroke: #000000; stroke-width: 0.8"/>
      </g>
     </g>
     <g id="text_8">
      <text style="font: 10px 'DejaVu Sans', 'Bitstream Vera Sans', 'Computer Modern Sans Serif', 'Lucida Grande', 'Verdana', 'Geneva', 'Lucid', 'Arial', 'Helvetica', 'Avant Garde', sans-serif; text-anchor: end" x="43.14375" y="365.76918" transform="rotate(-0 43.14375 365.76918)">0.06</text>
     </g>
    </g>
    <g id="ytick_3">
     <g id="line2d_15">
      <path d="M 50.14375 269.193626 
L 596.070032 269.193626 
" clip-path="url(#pf216340e77)" style="fill: none; stroke: #b0b0b0; stroke-opacity: 0.25; stroke-width: 0.8; stroke-linecap: square"/>
     </g>
     <g id="line2d_16">
      <g>
       <use xlink:href="#mcbf6649d6a" x="50.14375" y="269.193626" style="stroke: #000000; stroke-width: 0.8"/>
      </g>
     </g>
     <g id="text_9">
      <text style="font: 10px 'DejaVu Sans', 'Bitstream Vera Sans', 'Computer Modern Sans Serif', 'Lucida Grande', 'Verdana', 'Geneva', 'Lucid', 'Arial', 'Helvetica', 'Avant Garde', sans-serif; text-anchor: end" x="43.14375" y="272.992845" transform="rotate(-0 43.14375 272.992845)">0.08</text>
     </g>
    </g>
    <g id="ytick_4">
     <g id="line2d_17">
      <path d="M 50.14375 176.41729 
L 596.070032 176.41729 
" clip-path="url(#pf216340e77)" style="fill: none; stroke: #b0b0b0; stroke-opacity: 0.25; stroke-width: 0.8; stroke-linecap: square"/>
     </g>
     <g id="line2d_18">
      <g>
       <use xlink:href="#mcbf6649d6a" x="50.14375" y="176.41729" style="stroke: #000000; stroke-width: 0.8"/>
      </g>
     </g>
     <g id="text_10">
      <text style="font: 10px 'DejaVu Sans', 'Bitstream Vera Sans', 'Computer Modern Sans Serif', 'Lucida Grande', 'Verdana', 'Geneva', 'Lucid', 'Arial', 'Helvetica', 'Avant Garde', sans-serif; text-anchor: end" x="43.14375" y="180.216509" transform="rotate(-0 43.14375 180.216509)">0.10</text>
     </g>
    </g>
    <g id="ytick_5">
     <g id="line2d_19">
      <path d="M 50.14375 83.640955 
L 596.070032 83.640955 
" clip-path="url(#pf216340e77)" style="fill: none; stroke: #b0b0b0; stroke-opacity: 0.25; stroke-width: 0.8; stroke-linecap: square"/>
     </g>
     <g id="line2d_20">
      <g>
       <use xlink:href="#mcbf6649d6a" x="50.14375" y="83.640955" style="stroke: #000000; stroke-width: 0.8"/>
      </g>
     </g>
     <g id="text_11">
      <text style="font: 10px 'DejaVu Sans', 'Bitstream Vera Sans', 'Computer Modern Sans Serif', 'Lucida Grande', 'Verdana', 'Geneva', 'Lucid', 'Arial', 'Helvetica', 'Avant Garde', sans-serif; text-anchor: end" x="43.14375" y="87.440174" transform="rotate(-0 43.14375 87.440174)">0.12</text>
     </g>
    </g>
    <g id="text_12">
     <text style="font: 10px 'DejaVu Sans', 'Bitstream Vera Sans', 'Computer Modern Sans Serif', 'Lucida Grande', 'Verdana', 'Geneva', 'Lucid', 'Arial', 'Helvetica', 'Avant Garde', sans-serif; text-anchor: middle" x="14.798438" y="286.233826" transform="rotate(-90 14.798438 286.233826)">Mean signed interaction</text>
    </g>
   </g>
   <g id="line2d_21">
    <path d="M 258.841213 546.843275 
L 258.841213 25.624378 
" clip-path="url(#pf216340e77)" style="fill: none; stroke-dasharray: 3.7,1.6; stroke-dashoffset: 0; stroke: #374151"/>
   </g>
   <g id="line2d_22">
    <path d="M 50.14375 388.512575 
L 596.070032 388.512575 
" clip-path="url(#pf216340e77)" style="fill: none; stroke-dasharray: 3.7,1.6; stroke-dashoffset: 0; stroke: #374151"/>
   </g>
   <g id="patch_3">
    <path d="M 50.14375 546.843275 
L 50.14375 25.624378 
" style="fill: none; stroke: #000000; stroke-width: 0.8; stroke-linejoin: miter; stroke-linecap: square"/>
   </g>
   <g id="patch_4">
    <path d="M 596.070032 546.843275 
L 596.070032 25.624378 
" style="fill: none; stroke: #000000; stroke-width: 0.8; stroke-linejoin: miter; stroke-linecap: square"/>
   </g>
   <g id="patch_5">
    <path d="M 50.14375 546.843275 
L 596.070032 546.843275 
" style="fill: none; stroke: #000000; stroke-width: 0.8; stroke-linejoin: miter; stroke-linecap: square"/>
   </g>
   <g id="patch_6">
    <path d="M 50.14375 25.624378 
L 596.070032 25.624378 
" style="fill: none; stroke: #000000; stroke-width: 0.8; stroke-linejoin: miter; stroke-linecap: square"/>
   </g>
   <g id="PathCollection_1">
    <defs>
     <path id="m65545a86a1" d="M 0 6.892024 
C 1.827786 6.892024 3.580957 6.165837 4.873397 4.873397 
C 6.165837 3.580957 6.892024 1.827786 6.892024 0 
C 6.892024 -1.827786 6.165837 -3.580957 4.873397 -4.873397 
C 3.580957 -6.165837 1.827786 -6.892024 0 -6.892024 
C -1.827786 -6.892024 -3.580957 -6.165837 -4.873397 -4.873397 
C -6.165837 -3.580957 -6.892024 -1.827786 -6.892024 0 
C -6.892024 1.827786 -6.165837 3.580957 -4.873397 4.873397 
C -3.580957 6.165837 -1.827786 6.892024 0 6.892024 
z
" style="stroke: #ffffff; stroke-width: 1.2"/>
    </defs>
    <g clip-path="url(#pf216340e77)">
     <use xlink:href="#m65545a86a1" x="307.801094" y="415.78186" style="fill: #d97706; stroke: #ffffff; stroke-width: 1.2"/>
    </g>
   </g>
   <g id="text_13">
    <text style="fill: #ffffff; font: 700 8px 'DejaVu Sans', 'Bitstream Vera Sans', 'Computer Modern Sans Serif', 'Lucida Grande', 'Verdana', 'Geneva', 'Lucid', 'Arial', 'Helvetica', 'Avant Garde', sans-serif; text-anchor: middle" x="307.801094" y="417.98936" transform="rotate(-0 307.801094 417.98936)">1</text>
   </g>
   <g id="PathCollection_2">
    <defs>
     <path id="mc1ecdf2e11" d="M 0 6.892024 
C 1.827786 6.892024 3.580957 6.165837 4.873397 4.873397 
C 6.165837 3.580957 6.892024 1.827786 6.892024 0 
C 6.892024 -1.827786 6.165837 -3.580957 4.873397 -4.873397 
C 3.580957 -6.165837 1.827786 -6.892024 0 -6.892024 
C -1.827786 -6.892024 -3.580957 -6.165837 -4.873397 -4.873397 
C -6.165837 -3.580957 -6.892024 -1.827786 -6.892024 0 
C -6.892024 1.827786 -6.165837 3.580957 -4.873397 4.873397 
C -3.580957 6.165837 -1.827786 6.892024 0 6.892024 
z
" style="stroke: #ffffff; stroke-width: 1.2"/>
    </defs>
    <g clip-path="url(#pf216340e77)">
     <use xlink:href="#mc1ecdf2e11" x="311.251751" y="361.243291" style="fill: #16803c; stroke: #ffffff; stroke-width: 1.2"/>
    </g>
   </g>
   <g id="text_14">
    <text style="fill: #ffffff; font: 700 8px 'DejaVu Sans', 'Bitstream Vera Sans', 'Computer Modern Sans Serif', 'Lucida Grande', 'Verdana', 'Geneva', 'Lucid', 'Arial', 'Helvetica', 'Avant Garde', sans-serif; text-anchor: middle" x="311.251751" y="363.450791" transform="rotate(-0 311.251751 363.450791)">2</text>
   </g>
   <g id="PathCollection_3">
    <defs>
     <path id="mb79e8f7c2f" d="M 0 6.892024 
C 1.827786 6.892024 3.580957 6.165837 4.873397 4.873397 
C 6.165837 3.580957 6.892024 1.827786 6.892024 0 
C 6.892024 -1.827786 6.165837 -3.580957 4.873397 -4.873397 
C 3.580957 -6.165837 1.827786 -6.892024 0 -6.892024 
C -1.827786 -6.892024 -3.580957 -6.165837 -4.873397 -4.873397 
C -6.165837 -3.580957 -6.892024 -1.827786 -6.892024 0 
C -6.892024 1.827786 -6.165837 3.580957 -4.873397 4.873397 
C -3.580957 6.165837 -1.827786 6.892024 0 6.892024 
z
" style="stroke: #ffffff; stroke-width: 1.2"/>
    </defs>
    <g clip-path="url(#pf216340e77)">
     <use xlink:href="#mb79e8f7c2f" x="209.881331" y="523.151507" style="fill: #6b7280; stroke: #ffffff; stroke-width: 1.2"/>
    </g>
   </g>
   <g id="text_15">
    <text style="fill: #ffffff; font: 700 8px 'DejaVu Sans', 'Bitstream Vera Sans', 'Computer Modern Sans Serif', 'Lucida Grande', 'Verdana', 'Geneva', 'Lucid', 'Arial', 'Helvetica', 'Avant Garde', sans-serif; text-anchor: middle" x="209.881331" y="525.359007" transform="rotate(-0 209.881331 525.359007)">3</text>
   </g>
   <g id="PathCollection_4">
    <defs>
     <path id="m88b43395ff" d="M 0 6.892024 
C 1.827786 6.892024 3.580957 6.165837 4.873397 4.873397 
C 6.165837 3.580957 6.892024 1.827786 6.892024 0 
C 6.892024 -1.827786 6.165837 -3.580957 4.873397 -4.873397 
C 3.580957 -6.165837 1.827786 -6.892024 0 -6.892024 
C -1.827786 -6.892024 -3.580957 -6.165837 -4.873397 -4.873397 
C -6.165837 -3.580957 -6.892024 -1.827786 -6.892024 0 
C -6.892024 1.827786 -6.165837 3.580957 -4.873397 4.873397 
C -3.580957 6.165837 -1.827786 6.892024 0 6.892024 
z
" style="stroke: #ffffff; stroke-width: 1.2"/>
    </defs>
    <g clip-path="url(#pf216340e77)">
     <use xlink:href="#m88b43395ff" x="74.958581" y="49.316146" style="fill: #2563eb; stroke: #ffffff; stroke-width: 1.2"/>
    </g>
   </g>
   <g id="text_16">
    <text style="fill: #ffffff; font: 700 8px 'DejaVu Sans', 'Bitstream Vera Sans', 'Computer Modern Sans Serif', 'Lucida Grande', 'Verdana', 'Geneva', 'Lucid', 'Arial', 'Helvetica', 'Avant Garde', sans-serif; text-anchor: middle" x="74.958581" y="51.523646" transform="rotate(-0 74.958581 51.523646)">4</text>
   </g>
   <g id="PathCollection_5">
    <g clip-path="url(#pf216340e77)">
     <use xlink:href="#m65545a86a1" x="571.255201" y="476.380695" style="fill: #d97706; stroke: #ffffff; stroke-width: 1.2"/>
    </g>
   </g>
   <g id="text_17">
    <text style="fill: #ffffff; font: 700 8px 'DejaVu Sans', 'Bitstream Vera Sans', 'Computer Modern Sans Serif', 'Lucida Grande', 'Verdana', 'Geneva', 'Lucid', 'Arial', 'Helvetica', 'Avant Garde', sans-serif; text-anchor: middle" x="571.255201" y="478.588195" transform="rotate(-0 571.255201 478.588195)">5</text>
   </g>
   <g id="PathCollection_6">
    <g clip-path="url(#pf216340e77)">
     <use xlink:href="#m65545a86a1" x="449.860656" y="424.44369" style="fill: #d97706; stroke: #ffffff; stroke-width: 1.2"/>
    </g>
   </g>
   <g id="text_18">
    <text style="fill: #ffffff; font: 700 8px 'DejaVu Sans', 'Bitstream Vera Sans', 'Computer Modern Sans Serif', 'Lucida Grande', 'Verdana', 'Geneva', 'Lucid', 'Arial', 'Helvetica', 'Avant Garde', sans-serif; text-anchor: middle" x="449.860656" y="426.65119" transform="rotate(-0 449.860656 426.65119)">6</text>
   </g>
   <g id="PathCollection_7">
    <g clip-path="url(#pf216340e77)">
     <use xlink:href="#m88b43395ff" x="198.476145" y="173.80784" style="fill: #2563eb; stroke: #ffffff; stroke-width: 1.2"/>
    </g>
   </g>
   <g id="text_19">
    <text style="fill: #ffffff; font: 700 8px 'DejaVu Sans', 'Bitstream Vera Sans', 'Computer Modern Sans Serif', 'Lucida Grande', 'Verdana', 'Geneva', 'Lucid', 'Arial', 'Helvetica', 'Avant Garde', sans-serif; text-anchor: middle" x="198.476145" y="176.01534" transform="rotate(-0 198.476145 176.01534)">7</text>
   </g>
   <g id="PathCollection_8">
    <g clip-path="url(#pf216340e77)">
     <use xlink:href="#m65545a86a1" x="470.653395" y="477.602849" style="fill: #d97706; stroke: #ffffff; stroke-width: 1.2"/>
    </g>
   </g>
   <g id="text_20">
    <text style="fill: #ffffff; font: 700 8px 'DejaVu Sans', 'Bitstream Vera Sans', 'Computer Modern Sans Serif', 'Lucida Grande', 'Verdana', 'Geneva', 'Lucid', 'Arial', 'Helvetica', 'Avant Garde', sans-serif; text-anchor: middle" x="470.653395" y="479.810349" transform="rotate(-0 470.653395 479.810349)">8</text>
   </g>
   <g id="PathCollection_9">
    <g clip-path="url(#pf216340e77)">
     <use xlink:href="#m88b43395ff" x="182.094585" y="218.130806" style="fill: #2563eb; stroke: #ffffff; stroke-width: 1.2"/>
    </g>
   </g>
   <g id="text_21">
    <text style="fill: #ffffff; font: 700 8px 'DejaVu Sans', 'Bitstream Vera Sans', 'Computer Modern Sans Serif', 'Lucida Grande', 'Verdana', 'Geneva', 'Lucid', 'Arial', 'Helvetica', 'Avant Garde', sans-serif; text-anchor: middle" x="182.094585" y="220.338306" transform="rotate(-0 182.094585 220.338306)">9</text>
   </g>
   <g id="PathCollection_10">
    <g clip-path="url(#pf216340e77)">
     <use xlink:href="#m88b43395ff" x="140.600473" y="347.896777" style="fill: #2563eb; stroke: #ffffff; stroke-width: 1.2"/>
    </g>
   </g>
   <g id="text_22">
    <text style="fill: #ffffff; font: 700 8px 'DejaVu Sans', 'Bitstream Vera Sans', 'Computer Modern Sans Serif', 'Lucida Grande', 'Verdana', 'Geneva', 'Lucid', 'Arial', 'Helvetica', 'Avant Garde', sans-serif; text-anchor: middle" x="140.600473" y="350.104277" transform="rotate(-0 140.600473 350.104277)">10</text>
   </g>
   <g id="text_23">
    <text style="fill: #2563eb; font: 700 10px 'DejaVu Sans', 'Bitstream Vera Sans', 'Computer Modern Sans Serif', 'Lucida Grande', 'Verdana', 'Geneva', 'Lucid', 'Arial', 'Helvetica', 'Avant Garde', sans-serif; text-anchor: start" x="58.332644" y="41.041099" transform="rotate(-0 58.332644 41.041099)">Low CKA / High interaction</text>
   </g>
   <g id="text_24">
    <text style="fill: #16803c; font: 700 10px 'DejaVu Sans', 'Bitstream Vera Sans', 'Computer Modern Sans Serif', 'Lucida Grande', 'Verdana', 'Geneva', 'Lucid', 'Arial', 'Helvetica', 'Avant Garde', sans-serif; text-anchor: end" x="587.881138" y="41.041099" transform="rotate(-0 587.881138 41.041099)">High CKA / High interaction</text>
   </g>
   <g id="text_25">
    <text style="fill: #6b7280; font: 700 10px 'DejaVu Sans', 'Bitstream Vera Sans', 'Computer Modern Sans Serif', 'Lucida Grande', 'Verdana', 'Geneva', 'Lucid', 'Arial', 'Helvetica', 'Avant Garde', sans-serif; text-anchor: start" x="58.332644" y="536.945304" transform="rotate(-0 58.332644 536.945304)">Low CKA / Low interaction</text>
   </g>
   <g id="text_26">
    <text style="fill: #d97706; font: 700 10px 'DejaVu Sans', 'Bitstream Vera Sans', 'Computer Modern Sans Serif', 'Lucida Grande', 'Verdana', 'Geneva', 'Lucid', 'Arial', 'Helvetica', 'Avant Garde', sans-serif; text-anchor: end" x="587.881138" y="536.867179" transform="rotate(-0 587.881138 536.867179)">High CKA / Low interaction</text>
   </g>
   <g id="text_27">
    <text style="fill: #4b5563; font: 8px 'DejaVu Sans', 'Bitstream Vera Sans', 'Computer Modern Sans Serif', 'Lucida Grande', 'Verdana', 'Geneva', 'Lucid', 'Arial', 'Helvetica', 'Avant Garde', sans-serif; text-anchor: end" x="759.847917" y="13.31375" transform="rotate(-0 759.847917 13.31375)">Median CKA=0.8363 | Median interaction=0.0543</text>
   </g>
   <g id="text_28">
    <text style="font: 12px 'DejaVu Sans', 'Bitstream Vera Sans', 'Computer Modern Sans Serif', 'Lucida Grande', 'Verdana', 'Geneva', 'Lucid', 'Arial', 'Helvetica', 'Avant Garde', sans-serif; text-anchor: middle" x="323.106891" y="19.624378" transform="rotate(-0 323.106891 19.624378)">CKA–Interaction Quadrants (mean signed interaction)</text>
   </g>
   <g id="legend_1">
    <g id="line2d_23">
     <path d="M 613.288558 238.383358 
L 620.288558 238.383358 
L 627.288558 238.383358 
" style="fill: none; stroke: #000000; stroke-opacity: 0; stroke-width: 1.5; stroke-linecap: square"/>
     <defs>
      <path id="m36df5a5139" d="M 0 4.5 
C 1.193414 4.5 2.338109 4.025852 3.181981 3.181981 
C 4.025852 2.338109 4.5 1.193414 4.5 0 
C 4.5 -1.193414 4.025852 -2.338109 3.181981 -3.181981 
C 2.338109 -4.025852 1.193414 -4.5 0 -4.5 
C -1.193414 -4.5 -2.338109 -4.025852 -3.181981 -3.181981 
C -4.025852 -2.338109 -4.5 -1.193414 -4.5 0 
C -4.5 1.193414 -4.025852 2.338109 -3.181981 3.181981 
C -2.338109 4.025852 -1.193414 4.5 0 4.5 
z
" style="stroke: #ffffff"/>
     </defs>
     <g>
      <use xlink:href="#m36df5a5139" x="620.288558" y="238.383358" style="fill: #d97706; stroke: #ffffff"/>
     </g>
    </g>
    <g id="text_29">
     <text style="font: 7px 'DejaVu Sans', 'Bitstream Vera Sans', 'Computer Modern Sans Serif', 'Lucida Grande', 'Verdana', 'Geneva', 'Lucid', 'Arial', 'Helvetica', 'Avant Garde', sans-serif; text-anchor: start" x="632.888558" y="240.833358" transform="rotate(-0 632.888558 240.833358)">1. features_conch_v15 || features_hoptimus0</text>
    </g>
    <g id="line2d_24">
     <path d="M 613.288558 248.883358 
L 620.288558 248.883358 
L 627.288558 248.883358 
" style="fill: none; stroke: #000000; stroke-opacity: 0; stroke-width: 1.5; stroke-linecap: square"/>
     <defs>
      <path id="md9d2fbe969" d="M 0 4.5 
C 1.193414 4.5 2.338109 4.025852 3.181981 3.181981 
C 4.025852 2.338109 4.5 1.193414 4.5 0 
C 4.5 -1.193414 4.025852 -2.338109 3.181981 -3.181981 
C 2.338109 -4.025852 1.193414 -4.5 0 -4.5 
C -1.193414 -4.5 -2.338109 -4.025852 -3.181981 -3.181981 
C -4.025852 -2.338109 -4.5 -1.193414 -4.5 0 
C -4.5 1.193414 -4.025852 2.338109 -3.181981 3.181981 
C -2.338109 4.025852 -1.193414 4.5 0 4.5 
z
" style="stroke: #ffffff"/>
     </defs>
     <g>
      <use xlink:href="#md9d2fbe969" x="620.288558" y="248.883358" style="fill: #16803c; stroke: #ffffff"/>
     </g>
    </g>
    <g id="text_30">
     <text style="font: 7px 'DejaVu Sans', 'Bitstream Vera Sans', 'Computer Modern Sans Serif', 'Lucida Grande', 'Verdana', 'Geneva', 'Lucid', 'Arial', 'Helvetica', 'Avant Garde', sans-serif; text-anchor: start" x="632.888558" y="251.333358" transform="rotate(-0 632.888558 251.333358)">2. features_conch_v15 || features_hoptimus1</text>
    </g>
    <g id="line2d_25">
     <path d="M 613.288558 259.383358 
L 620.288558 259.383358 
L 627.288558 259.383358 
" style="fill: none; stroke: #000000; stroke-opacity: 0; stroke-width: 1.5; stroke-linecap: square"/>
     <defs>
      <path id="ma1895bf69c" d="M 0 4.5 
C 1.193414 4.5 2.338109 4.025852 3.181981 3.181981 
C 4.025852 2.338109 4.5 1.193414 4.5 0 
C 4.5 -1.193414 4.025852 -2.338109 3.181981 -3.181981 
C 2.338109 -4.025852 1.193414 -4.5 0 -4.5 
C -1.193414 -4.5 -2.338109 -4.025852 -3.181981 -3.181981 
C -4.025852 -2.338109 -4.5 -1.193414 -4.5 0 
C -4.5 1.193414 -4.025852 2.338109 -3.181981 3.181981 
C -2.338109 4.025852 -1.193414 4.5 0 4.5 
z
" style="stroke: #ffffff"/>
     </defs>
     <g>
      <use xlink:href="#ma1895bf69c" x="620.288558" y="259.383358" style="fill: #6b7280; stroke: #ffffff"/>
     </g>
    </g>
    <g id="text_31">
     <text style="font: 7px 'DejaVu Sans', 'Bitstream Vera Sans', 'Computer Modern Sans Serif', 'Lucida Grande', 'Verdana', 'Geneva', 'Lucid', 'Arial', 'Helvetica', 'Avant Garde', sans-serif; text-anchor: start" x="632.888558" y="261.833358" transform="rotate(-0 632.888558 261.833358)">3. features_conch_v15 || features_uni_v2</text>
    </g>
    <g id="line2d_26">
     <path d="M 613.288558 269.883358 
L 620.288558 269.883358 
L 627.288558 269.883358 
" style="fill: none; stroke: #000000; stroke-opacity: 0; stroke-width: 1.5; stroke-linecap: square"/>
     <defs>
      <path id="m98e16be0f9" d="M 0 4.5 
C 1.193414 4.5 2.338109 4.025852 3.181981 3.181981 
C 4.025852 2.338109 4.5 1.193414 4.5 0 
C 4.5 -1.193414 4.025852 -2.338109 3.181981 -3.181981 
C 2.338109 -4.025852 1.193414 -4.5 0 -4.5 
C -1.193414 -4.5 -2.338109 -4.025852 -3.181981 -3.181981 
C -4.025852 -2.338109 -4.5 -1.193414 -4.5 0 
C -4.5 1.193414 -4.025852 2.338109 -3.181981 3.181981 
C -2.338109 4.025852 -1.193414 4.5 0 4.5 
z
" style="stroke: #ffffff"/>
     </defs>
     <g>
      <use xlink:href="#m98e16be0f9" x="620.288558" y="269.883358" style="fill: #2563eb; stroke: #ffffff"/>
     </g>
    </g>
    <g id="text_32">
     <text style="font: 7px 'DejaVu Sans', 'Bitstream Vera Sans', 'Computer Modern Sans Serif', 'Lucida Grande', 'Verdana', 'Geneva', 'Lucid', 'Arial', 'Helvetica', 'Avant Garde', sans-serif; text-anchor: start" x="632.888558" y="272.333358" transform="rotate(-0 632.888558 272.333358)">4. features_conch_v15 || features_virchow2</text>
    </g>
    <g id="line2d_27">
     <path d="M 613.288558 280.383358 
L 620.288558 280.383358 
L 627.288558 280.383358 
" style="fill: none; stroke: #000000; stroke-opacity: 0; stroke-width: 1.5; stroke-linecap: square"/>
     <g>
      <use xlink:href="#m36df5a5139" x="620.288558" y="280.383358" style="fill: #d97706; stroke: #ffffff"/>
     </g>
    </g>
    <g id="text_33">
     <text style="font: 7px 'DejaVu Sans', 'Bitstream Vera Sans', 'Computer Modern Sans Serif', 'Lucida Grande', 'Verdana', 'Geneva', 'Lucid', 'Arial', 'Helvetica', 'Avant Garde', sans-serif; text-anchor: start" x="632.888558" y="282.833358" transform="rotate(-0 632.888558 282.833358)">5. features_hoptimus0 || features_hoptimus1</text>
    </g>
    <g id="line2d_28">
     <path d="M 613.288558 290.883358 
L 620.288558 290.883358 
L 627.288558 290.883358 
" style="fill: none; stroke: #000000; stroke-opacity: 0; stroke-width: 1.5; stroke-linecap: square"/>
     <g>
      <use xlink:href="#m36df5a5139" x="620.288558" y="290.883358" style="fill: #d97706; stroke: #ffffff"/>
     </g>
    </g>
    <g id="text_34">
     <text style="font: 7px 'DejaVu Sans', 'Bitstream Vera Sans', 'Computer Modern Sans Serif', 'Lucida Grande', 'Verdana', 'Geneva', 'Lucid', 'Arial', 'Helvetica', 'Avant Garde', sans-serif; text-anchor: start" x="632.888558" y="293.333358" transform="rotate(-0 632.888558 293.333358)">6. features_hoptimus0 || features_uni_v2</text>
    </g>
    <g id="line2d_29">
     <path d="M 613.288558 301.383358 
L 620.288558 301.383358 
L 627.288558 301.383358 
" style="fill: none; stroke: #000000; stroke-opacity: 0; stroke-width: 1.5; stroke-linecap: square"/>
     <g>
      <use xlink:href="#m98e16be0f9" x="620.288558" y="301.383358" style="fill: #2563eb; stroke: #ffffff"/>
     </g>
    </g>
    <g id="text_35">
     <text style="font: 7px 'DejaVu Sans', 'Bitstream Vera Sans', 'Computer Modern Sans Serif', 'Lucida Grande', 'Verdana', 'Geneva', 'Lucid', 'Arial', 'Helvetica', 'Avant Garde', sans-serif; text-anchor: start" x="632.888558" y="303.833358" transform="rotate(-0 632.888558 303.833358)">7. features_hoptimus0 || features_virchow2</text>
    </g>
    <g id="line2d_30">
     <path d="M 613.288558 311.883358 
L 620.288558 311.883358 
L 627.288558 311.883358 
" style="fill: none; stroke: #000000; stroke-opacity: 0; stroke-width: 1.5; stroke-linecap: square"/>
     <g>
      <use xlink:href="#m36df5a5139" x="620.288558" y="311.883358" style="fill: #d97706; stroke: #ffffff"/>
     </g>
    </g>
    <g id="text_36">
     <text style="font: 7px 'DejaVu Sans', 'Bitstream Vera Sans', 'Computer Modern Sans Serif', 'Lucida Grande', 'Verdana', 'Geneva', 'Lucid', 'Arial', 'Helvetica', 'Avant Garde', sans-serif; text-anchor: start" x="632.888558" y="314.333358" transform="rotate(-0 632.888558 314.333358)">8. features_hoptimus1 || features_uni_v2</text>
    </g>
    <g id="line2d_31">
     <path d="M 613.288558 322.383358 
L 620.288558 322.383358 
L 627.288558 322.383358 
" style="fill: none; stroke: #000000; stroke-opacity: 0; stroke-width: 1.5; stroke-linecap: square"/>
     <g>
      <use xlink:href="#m98e16be0f9" x="620.288558" y="322.383358" style="fill: #2563eb; stroke: #ffffff"/>
     </g>
    </g>
    <g id="text_37">
     <text style="font: 7px 'DejaVu Sans', 'Bitstream Vera Sans', 'Computer Modern Sans Serif', 'Lucida Grande', 'Verdana', 'Geneva', 'Lucid', 'Arial', 'Helvetica', 'Avant Garde', sans-serif; text-anchor: start" x="632.888558" y="324.833358" transform="rotate(-0 632.888558 324.833358)">9. features_hoptimus1 || features_virchow2</text>
    </g>
    <g id="line2d_32">
     <path d="M 613.288558 332.883358 
L 620.288558 332.883358 
L 627.288558 332.883358 
" style="fill: none; stroke: #000000; stroke-opacity: 0; stroke-width: 1.5; stroke-linecap: square"/>
     <g>
      <use xlink:href="#m98e16be0f9" x="620.288558" y="332.883358" style="fill: #2563eb; stroke: #ffffff"/>
     </g>
    </g>
    <g id="text_38">
     <text style="font: 7px 'DejaVu Sans', 'Bitstream Vera Sans', 'Computer Modern Sans Serif', 'Lucida Grande', 'Verdana', 'Geneva', 'Lucid', 'Arial', 'Helvetica', 'Avant Garde', sans-serif; text-anchor: start" x="632.888558" y="335.333358" transform="rotate(-0 632.888558 335.333358)">10. features_uni_v2 || features_virchow2</text>
    </g>
   </g>
  </g>
 </g>
 <defs>
  <clipPath id="pf216340e77">
   <rect x="50.14375" y="25.624378" width="545.926282" height="521.218897"/>
  </clipPath>
 </defs>
</svg>
