<?xml version="1.0" encoding="utf-8" standalone="no"?>
<!DOCTYPE svg PUBLIC "-//W3C//DTD SVG 1.1//EN"
  "http://www.w3.org/Graphics/SVG/1.1/DTD/svg11.dtd">
<svg xmlns:xlink="http://www.w3.org/1999/xlink" width="800.399484pt" height="584.399525pt" viewBox="0 0 800.399484 584.399525" xmlns="http://www.w3.org/2000/svg" version="1.1">
 <metadata>
  <rdf:RDF xmlns:dc="http://purl.org/dc/elements/1.1/" xmlns:cc="http://creativecommons.org/ns#" xmlns:rdf="http://www.w3.org/1999/02/22-rdf-syntax-ns#">
   <cc:Work>
    <dc:type rdf:resource="http://purl.org/dc/dcmitype/StillImage"/>
    <dc:date>2026-08-09T17:44:06.196358</dc:date>
    <dc:format>image/svg+xml</dc:format>
    <dc:creator>
     <cc:Agent>
      <dc:title>Matplotlib v3.9.2, https://matplotlib.org/</dc:title>
     </cc:Agent>
    </dc:creator>
   </cc:Work>
  </rdf:RDF>
 </metadata>
 <defs>
  <style type="text/css">*{stroke-linejoin: round; stroke-linecap: butt}</style>
 </defs>
 <g id="figure_1">
  <g id="patch_1">
   <path d="M 0 584.399525 
L 800.399484 584.399525 
L 800.399484 0 
L 0 0 
z
" style="fill: #ffffff"/>
  </g>
  <g id="axes_1">
   <g id="patch_2">
    <path d="M 50.14375 546.843275 
L 605.97811 546.843275 
L 605.97811 25.624378 
L 50.14375 25.624378 
z
" style="fill: #ffffff"/>
   </g>
   <g id="matplotlib.axis_1">
    <g id="xtick_1">
     <g id="line2d_1">
      <path d="M 82.407488 546.843275 
L 82.407488 25.624378 
" clip-path="url(#pca7f14ecc2)" style="fill: none; stroke: #b0b0b0; stroke-opacity: 0.25; stroke-width: 0.8; stroke-linecap: square"/>
     </g>
     <g id="line2d_2">
      <defs>
       <path id="m10e2201a9c" d="M 0 0 
L 0 3.5 
" style="stroke: #000000; stroke-width: 0.8"/>
      </defs>
      <g>
       <use xlink:href="#m10e2201a9c" x="82.407488" y="546.843275" style="stroke: #000000; stroke-width: 0.8"/>
      </g>
     </g>
     <g id="text_1">
      <text style="font: 10px 'DejaVu Sans', 'Bitstream Vera Sans', 'Computer Modern Sans Serif', 'Lucida Grande', 'Verdana', 'Geneva', 'Lucid', 'Arial', 'Helvetica', 'Avant Garde', sans-serif; text-anchor: middle" x="82.407488" y="561.441712" transform="rotate(-0 82.407488 561.441712)">0.76</text>
     </g>
    </g>
    <g id="xtick_2">
     <g id="line2d_3">
      <path d="M 151.497736 546.843275 
L 151.497736 25.624378 
" clip-path="url(#pca7f14ecc2)" style="fill: none; stroke: #b0b0b0; stroke-opacity: 0.25; stroke-width: 0.8; stroke-linecap: square"/>
     </g>
     <g id="line2d_4">
      <g>
       <use xlink:href="#m10e2201a9c" x="151.497736" y="546.843275" style="stroke: #000000; stroke-width: 0.8"/>
      </g>
     </g>
     <g id="text_2">
      <text style="font: 10px 'DejaVu Sans', 'Bitstream Vera Sans', 'Computer Modern Sans Serif', 'Lucida Grande', 'Verdana', 'Geneva', 'Lucid', 'Arial', 'Helvetica', 'Avant Garde', sans-serif; text-anchor: middle" x="151.497736" y="561.441712" transform="rotate(-0 151.497736 561.441712)">0.78</text>
     </g>
    </g>
    <g id="xtick_3">
     <g id="line2d_5">
      <path d="M 220.587984 546.843275 
L 220.587984 25.624378 
" clip-path="url(#pca7f14ecc2)" style="fill: none; stroke: #b0b0b0; stroke-opacity: 0.25; stroke-width: 0.8; stroke-linecap: square"/>
     </g>
     <g id="line2d_6">
      <g>
       <use xlink:href="#m10e2201a9c" x="220.587984" y="546.843275" style="stroke: #000000; stroke-width: 0.8"/>
      </g>
     </g>
     <g id="text_3">
      <text style="font: 10px 'DejaVu Sans', 'Bitstream Vera Sans', 'Computer Modern Sans Serif', 'Lucida Grande', 'Verdana', 'Geneva', 'Lucid', 'Arial', 'Helvetica', 'Avant Garde', sans-serif; text-anchor: middle" x="220.587984" y="561.441712" transform="rotate(-0 220.587984 561.441712)">0.80</text>
     </g>
    </g>
    <g id="xtick_4">
     <g id="line2d_7">
      <path d="M 289.678231 546.843275 
L 289.678231 25.624378 
" clip-path="url(#pca7f14ecc2)" style="fill: none; stroke: #b0b0b0; stroke-opacity: 0.25; stroke-width: 0.8; stroke-linecap: square"/>
     </g>
     <g id="line2d_8">
      <g>
       <use xlink:href="#m10e2201a9c" x="289.678231" y="546.843275" style="stroke: #000000; stroke-width: 0.8"/>
      </g>
     </g>
     <g id="text_4">
      <text style="font: 10px 'DejaVu Sans', 'Bitstream Vera Sans', 'Computer Modern Sans Serif', 'Lucida Grande', 'Verdana', 'Geneva', 'Lucid', 'Arial', 'Helvetica', 'Avant Garde', sans-serif; text-anchor: middle" x="289.678231" y="561.441712" transform="rotate(-0 289.678231 561.441712)">0.82</text>
     </g>
    </g>
    <g id="xtick_5">
     <g id="line2d_9">
      <path d="M 358.768479 546.843275 
L 358.768479 25.624378 
" clip-path="url(#pca7f14ecc2)" style="fill: none; stroke: #b0b0b0; stroke-opacity: 0.25; stroke-width: 0.8; stroke-linecap: square"/>
     </g>
     <g id="line2d_10">
      <g>
       <use xlink:href="#m10e2201a9c" x="358.768479" y="546.843275" style="stroke: #000000; stroke-width: 0.8"/>
      </g>
     </g>
     <g id="text_5">
      <text style="font: 10px 'DejaVu Sans', 'Bitstream Vera Sans', 'Computer Modern Sans Serif', 'Lucida Grande', 'Verdana', 'Geneva', 'Lucid', 'Arial', 'Helvetica', 'Avant Garde', sans-serif; text-anchor: middle" x="358.768479" y="561.441712" transform="rotate(-0 358.768479 561.441712)">0.84</text>
     </g>
    </g>
    <g id="xtick_6">
     <g id="line2d_11">
      <path d="M 427.858727 546.843275 
L 427.858727 25.624378 
" clip-path="url(#pca7f14ecc2)" style="fill: none; stroke: #b0b0b0; stroke-opacity: 0.25; stroke-width: 0.8; stroke-linecap: square"/>
     </g>
     <g id="line2d_12">
      <g>
       <use xlink:href="#m10e2201a9c" x="427.858727" y="546.843275" style="stroke: #000000; stroke-width: 0.8"/>
      </g>
     </g>
     <g id="text_6">
      <text style="font: 10px 'DejaVu Sans', 'Bitstream Vera Sans', 'Computer Modern Sans Serif', 'Lucida Grande', 'Verdana', 'Geneva', 'Lucid', 'Arial', 'Helvetica', 'Avant Garde', sans-serif; text-anchor: middle" x="427.858727" y="561.441712" transform="rotate(-0 427.858727 561.441712)">0.86</text>
     </g>
    </g>
    <g id="xtick_7">
     <g id="line2d_13">
      <path d="M 496.948975 546.843275 
L 496.948975 25.624378 
" clip-path="url(#pca7f14ecc2)" style="fill: none; stroke: #b0b0b0; stroke-opacity: 0.25; stroke-width: 0.8; stroke-linecap: square"/>
     </g>
     <g id="line2d_14">
      <g>
       <use xlink:href="#m10e2201a9c" x="496.948975" y="546.843275" style="stroke: #000000; stroke-width: 0.8"/>
      </g>
     </g>
     <g id="text_7">
      <text style="font: 10px 'DejaVu Sans', 'Bitstream Vera Sans', 'Computer Modern Sans Serif', 'Lucida Grande', 'Verdana', 'Geneva', 'Lucid', 'Arial', 'Helvetica', 'Avant Garde', sans-serif; text-anchor: middle" x="496.948975" y="561.441712" transform="rotate(-0 496.948975 561.441712)">0.88</text>
     </g>
    </g>
    <g id="xtick_8">
     <g id="line2d_15">
      <path d="M 566.039222 546.843275 
L 566.039222 25.624378 
" clip-path="url(#pca7f14ecc2)" style="fill: none; stroke: #b0b0b0; stroke-opacity: 0.25; stroke-width: 0.8; stroke-linecap: square"/>
     </g>
     <g id="line2d_16">
      <g>
       <use xlink:href="#m10e2201a9c" x="566.039222" y="546.843275" style="stroke: #000000; stroke-width: 0.8"/>
      </g>
     </g>
     <g id="text_8">
      <text style="font: 10px 'DejaVu Sans', 'Bitstream Vera Sans', 'Computer Modern Sans Serif', 'Lucida Grande', 'Verdana', 'Geneva', 'Lucid', 'Arial', 'Helvetica', 'Avant Garde', sans-serif; text-anchor: middle" x="566.039222" y="561.441712" transform="rotate(-0 566.039222 561.441712)">0.90</text>
     </g>
    </g>
    <g id="text_9">
     <text style="font: 10px 'DejaVu Sans', 'Bitstream Vera Sans', 'Computer Modern Sans Serif', 'Lucida Grande', 'Verdana', 'Geneva', 'Lucid', 'Arial', 'Helvetica', 'Avant Garde', sans-serif; text-anchor: middle" x="328.06093" y="575.119837" transform="rotate(-0 328.06093 575.119837)">Mean pairwise Linear CKA</text>
    </g>
   </g>
   <g id="matplotlib.axis_2">
    <g id="ytick_1">
     <g id="line2d_17">
      <path d="M 50.14375 493.593869 
L 605.97811 493.593869 
" clip-path="url(#pca7f14ecc2)" style="fill: none; stroke: #b0b0b0; stroke-opacity: 0.25; stroke-width: 0.8; stroke-linecap: square"/>
     </g>
     <g id="line2d_18">
      <defs>
       <path id="m76c58078b0" d="M 0 0 
L -3.5 0 
" style="stroke: #000000; stroke-width: 0.8"/>
      </defs>
      <g>
       <use xlink:href="#m76c58078b0" x="50.14375" y="493.593869" style="stroke: #000000; stroke-width: 0.8"/>
      </g>
     </g>
     <g id="text_10">
      <text style="font: 10px 'DejaVu Sans', 'Bitstream Vera Sans', 'Computer Modern Sans Serif', 'Lucida Grande', 'Verdana', 'Geneva', 'Lucid', 'Arial', 'Helvetica', 'Avant Garde', sans-serif; text-anchor: end" x="43.14375" y="497.393088" transform="rotate(-0 43.14375 497.393088)">0.05</text>
     </g>
    </g>
    <g id="ytick_2">
     <g id="line2d_19">
      <path d="M 50.14375 399.442448 
L 605.97811 399.442448 
" clip-path="url(#pca7f14ecc2)" style="fill: none; stroke: #b0b0b0; stroke-opacity: 0.25; stroke-width: 0.8; stroke-linecap: square"/>
     </g>
     <g id="line2d_20">
      <g>
       <use xlink:href="#m76c58078b0" x="50.14375" y="399.442448" style="stroke: #000000; stroke-width: 0.8"/>
      </g>
     </g>
     <g id="text_11">
      <text style="font: 10px 'DejaVu Sans', 'Bitstream Vera Sans', 'Computer Modern Sans Serif', 'Lucida Grande', 'Verdana', 'Geneva', 'Lucid', 'Arial', 'Helvetica', 'Avant Garde', sans-serif; text-anchor: end" x="43.14375" y="403.241667" transform="rotate(-0 43.14375 403.241667)">0.10</text>
     </g>
    </g>
    <g id="ytick_3">
     <g id="line2d_21">
      <path d="M 50.14375 305.291027 
L 605.97811 305.291027 
" clip-path="url(#pca7f14ecc2)" style="fill: none; stroke: #b0b0b0; stroke-opacity: 0.25; stroke-width: 0.8; stroke-linecap: square"/>
     </g>
     <g id="line2d_22">
      <g>
       <use xlink:href="#m76c58078b0" x="50.14375" y="305.291027" style="stroke: #000000; stroke-width: 0.8"/>
      </g>
     </g>
     <g id="text_12">
      <text style="font: 10px 'DejaVu Sans', 'Bitstream Vera Sans', 'Computer Modern Sans Serif', 'Lucida Grande', 'Verdana', 'Geneva', 'Lucid', 'Arial', 'Helvetica', 'Avant Garde', sans-serif; text-anchor: end" x="43.14375" y="309.090246" transform="rotate(-0 43.14375 309.090246)">0.15</text>
     </g>
    </g>
    <g id="ytick_4">
     <g id="line2d_23">
      <path d="M 50.14375 211.139607 
L 605.97811 211.139607 
" clip-path="url(#pca7f14ecc2)" style="fill: none; stroke: #b0b0b0; stroke-opacity: 0.25; stroke-width: 0.8; stroke-linecap: square"/>
     </g>
     <g id="line2d_24">
      <g>
       <use xlink:href="#m76c58078b0" x="50.14375" y="211.139607" style="stroke: #000000; stroke-width: 0.8"/>
      </g>
     </g>
     <g id="text_13">
      <text style="font: 10px 'DejaVu Sans', 'Bitstream Vera Sans', 'Computer Modern Sans Serif', 'Lucida Grande', 'Verdana', 'Geneva', 'Lucid', 'Arial', 'Helvetica', 'Avant Garde', sans-serif; text-anchor: end" x="43.14375" y="214.938825" transform="rotate(-0 43.14375 214.938825)">0.20</text>
     </g>
    </g>
    <g id="ytick_5">
     <g id="line2d_25">
      <path d="M 50.14375 116.988186 
L 605.97811 116.988186 
" clip-path="url(#pca7f14ecc2)" style="fill: none; stroke: #b0b0b0; stroke-opacity: 0.25; stroke-width: 0.8; stroke-linecap: square"/>
     </g>
     <g id="line2d_26">
      <g>
       <use xlink:href="#m76c58078b0" x="50.14375" y="116.988186" style="stroke: #000000; stroke-width: 0.8"/>
      </g>
     </g>
     <g id="text_14">
      <text style="font: 10px 'DejaVu Sans', 'Bitstream Vera Sans', 'Computer Modern Sans Serif', 'Lucida Grande', 'Verdana', 'Geneva', 'Lucid', 'Arial', 'Helvetica', 'Avant Garde', sans-serif; text-anchor: end" x="43.14375" y="120.787405" transform="rotate(-0 43.14375 120.787405)">0.25</text>
     </g>
    </g>
    <g id="text_15">
     <text style="font: 10px 'DejaVu Sans', 'Bitstream Vera Sans', 'Computer Modern Sans Serif', 'Lucida Grande', 'Verdana', 'Geneva', 'Lucid', 'Arial', 'Helvetica', 'Avant Garde', sans-serif; text-anchor: middle" x="14.798438" y="286.233826" transform="rotate(-90 14.798438 286.233826)">Mean signed interaction</text>
    </g>
   </g>
   <g id="line2d_27">
    <path d="M 366.674886 546.843275 
L 366.674886 25.624378 
" clip-path="url(#pca7f14ecc2)" style="fill: none; stroke-dasharray: 3.7,1.6; stroke-dashoffset: 0; stroke: #374151"/>
   </g>
   <g id="line2d_28">
    <path d="M 50.14375 316.52727 
L 605.97811 316.52727 
" clip-path="url(#pca7f14ecc2)" style="fill: none; stroke-dasharray: 3.7,1.6; stroke-dashoffset: 0; stroke: #374151"/>
   </g>
   <g id="patch_3">
    <path d="M 50.14375 546.843275 
L 50.14375 25.624378 
" style="fill: none; stroke: #000000; stroke-width: 0.8; stroke-linejoin: miter; stroke-linecap: square"/>
   </g>
   <g id="patch_4">
    <path d="M 605.97811 546.843275 
L 605.97811 25.624378 
" style="fill: none; stroke: #000000; stroke-width: 0.8; stroke-linejoin: miter; stroke-linecap: square"/>
   </g>
   <g id="patch_5">
    <path d="M 50.14375 546.843275 
L 605.97811 546.843275 
" style="fill: none; stroke: #000000; stroke-width: 0.8; stroke-linejoin: miter; stroke-linecap: square"/>
   </g>
   <g id="patch_6">
    <path d="M 50.14375 25.624378 
L 605.97811 25.624378 
" style="fill: none; stroke: #000000; stroke-width: 0.8; stroke-linejoin: miter; stroke-linecap: square"/>
   </g>
   <g id="PathCollection_1">
    <defs>
     <path id="m52aa1b9ef5" d="M 0 6.892024 
C 1.827786 6.892024 3.580957 6.165837 4.873397 4.873397 
C 6.165837 3.580957 6.892024 1.827786 6.892024 0 
C 6.892024 -1.827786 6.165837 -3.580957 4.873397 -4.873397 
C 3.580957 -6.165837 1.827786 -6.892024 0 -6.892024 
C -1.827786 -6.892024 -3.580957 -6.165837 -4.873397 -4.873397 
C -6.165837 -3.580957 -6.892024 -1.827786 -6.892024 0 
C -6.892024 1.827786 -6.165837 3.580957 -4.873397 4.873397 
C -3.580957 6.165837 -1.827786 6.892024 0 6.892024 
z
" style="stroke: #ffffff; stroke-width: 1.2"/>
    </defs>
    <g clip-path="url(#pca7f14ecc2)">
     <use xlink:href="#m52aa1b9ef5" x="448.936564" y="335.689908" style="fill: #d97706; stroke: #ffffff; stroke-width: 1.2"/>
    </g>
   </g>
   <g id="text_16">
    <text style="fill: #ffffff; font: 700 8px 'DejaVu Sans', 'Bitstream Vera Sans', 'Computer Modern Sans Serif', 'Lucida Grande', 'Verdana', 'Geneva', 'Lucid', 'Arial', 'Helvetica', 'Avant Garde', sans-serif; text-anchor: middle" x="448.936564" y="337.897408" transform="rotate(-0 448.936564 337.897408)">1</text>
   </g>
   <g id="PathCollection_2">
    <g clip-path="url(#pca7f14ecc2)">
     <use xlink:href="#m52aa1b9ef5" x="443.591656" y="483.897473" style="fill: #d97706; stroke: #ffffff; stroke-width: 1.2"/>
    </g>
   </g>
   <g id="text_17">
    <text style="fill: #ffffff; font: 700 8px 'DejaVu Sans', 'Bitstream Vera Sans', 'Computer Modern Sans Serif', 'Lucida Grande', 'Verdana', 'Geneva', 'Lucid', 'Arial', 'Helvetica', 'Avant Garde', sans-serif; text-anchor: middle" x="443.591656" y="486.104973" transform="rotate(-0 443.591656 486.104973)">2</text>
   </g>
   <g id="PathCollection_3">
    <defs>
     <path id="m6d4c4bf70c" d="M 0 6.892024 
C 1.827786 6.892024 3.580957 6.165837 4.873397 4.873397 
C 6.165837 3.580957 6.892024 1.827786 6.892024 0 
C 6.892024 -1.827786 6.165837 -3.580957 4.873397 -4.873397 
C 3.580957 -6.165837 1.827786 -6.892024 0 -6.892024 
C -1.827786 -6.892024 -3.580957 -6.165837 -4.873397 -4.873397 
C -6.165837 -3.580957 -6.892024 -1.827786 -6.892024 0 
C -6.892024 1.827786 -6.165837 3.580957 -4.873397 4.873397 
C -3.580957 6.165837 -1.827786 6.892024 0 6.892024 
z
" style="stroke: #ffffff; stroke-width: 1.2"/>
    </defs>
    <g clip-path="url(#pca7f14ecc2)">
     <use xlink:href="#m6d4c4bf70c" x="289.758117" y="297.364631" style="fill: #2563eb; stroke: #ffffff; stroke-width: 1.2"/>
    </g>
   </g>
   <g id="text_18">
    <text style="fill: #ffffff; font: 700 8px 'DejaVu Sans', 'Bitstream Vera Sans', 'Computer Modern Sans Serif', 'Lucida Grande', 'Verdana', 'Geneva', 'Lucid', 'Arial', 'Helvetica', 'Avant Garde', sans-serif; text-anchor: middle" x="289.758117" y="299.572131" transform="rotate(-0 289.758117 299.572131)">3</text>
   </g>
   <g id="PathCollection_4">
    <g clip-path="url(#pca7f14ecc2)">
     <use xlink:href="#m6d4c4bf70c" x="75.408948" y="94.587586" style="fill: #2563eb; stroke: #ffffff; stroke-width: 1.2"/>
    </g>
   </g>
   <g id="text_19">
    <text style="fill: #ffffff; font: 700 8px 'DejaVu Sans', 'Bitstream Vera Sans', 'Computer Modern Sans Serif', 'Lucida Grande', 'Verdana', 'Geneva', 'Lucid', 'Arial', 'Helvetica', 'Avant Garde', sans-serif; text-anchor: middle" x="75.408948" y="96.795086" transform="rotate(-0 75.408948 96.795086)">4</text>
   </g>
   <g id="PathCollection_5">
    <g clip-path="url(#pca7f14ecc2)">
     <use xlink:href="#m52aa1b9ef5" x="574.202322" y="523.151507" style="fill: #d97706; stroke: #ffffff; stroke-width: 1.2"/>
    </g>
   </g>
   <g id="text_20">
    <text style="fill: #ffffff; font: 700 8px 'DejaVu Sans', 'Bitstream Vera Sans', 'Computer Modern Sans Serif', 'Lucida Grande', 'Verdana', 'Geneva', 'Lucid', 'Arial', 'Helvetica', 'Avant Garde', sans-serif; text-anchor: middle" x="574.202322" y="525.359007" transform="rotate(-0 574.202322 525.359007)">5</text>
   </g>
   <g id="PathCollection_6">
    <defs>
     <path id="m068d8b964c" d="M 0 6.892024 
C 1.827786 6.892024 3.580957 6.165837 4.873397 4.873397 
C 6.165837 3.580957 6.892024 1.827786 6.892024 0 
C 6.892024 -1.827786 6.165837 -3.580957 4.873397 -4.873397 
C 3.580957 -6.165837 1.827786 -6.892024 0 -6.892024 
C -1.827786 -6.892024 -3.580957 -6.165837 -4.873397 -4.873397 
C -6.165837 -3.580957 -6.892024 -1.827786 -6.892024 0 
C -6.892024 1.827786 -6.165837 3.580957 -4.873397 4.873397 
C -3.580957 6.165837 -1.827786 6.892024 0 6.892024 
z
" style="stroke: #ffffff; stroke-width: 1.2"/>
    </defs>
    <g clip-path="url(#pca7f14ecc2)">
     <use xlink:href="#m068d8b964c" x="580.712912" y="274.91406" style="fill: #16803c; stroke: #ffffff; stroke-width: 1.2"/>
    </g>
   </g>
   <g id="text_21">
    <text style="fill: #ffffff; font: 700 8px 'DejaVu Sans', 'Bitstream Vera Sans', 'Computer Modern Sans Serif', 'Lucida Grande', 'Verdana', 'Geneva', 'Lucid', 'Arial', 'Helvetica', 'Avant Garde', sans-serif; text-anchor: middle" x="580.712912" y="277.12156" transform="rotate(-0 580.712912 277.12156)">6</text>
   </g>
   <g id="PathCollection_7">
    <g clip-path="url(#pca7f14ecc2)">
     <use xlink:href="#m6d4c4bf70c" x="186.609875" y="275.414216" style="fill: #2563eb; stroke: #ffffff; stroke-width: 1.2"/>
    </g>
   </g>
   <g id="text_22">
    <text style="fill: #ffffff; font: 700 8px 'DejaVu Sans', 'Bitstream Vera Sans', 'Computer Modern Sans Serif', 'Lucida Grande', 'Verdana', 'Geneva', 'Lucid', 'Arial', 'Helvetica', 'Avant Garde', sans-serif; text-anchor: middle" x="186.609875" y="277.621716" transform="rotate(-0 186.609875 277.621716)">7</text>
   </g>
   <g id="PathCollection_8">
    <g clip-path="url(#pca7f14ecc2)">
     <use xlink:href="#m52aa1b9ef5" x="480.566381" y="414.990355" style="fill: #d97706; stroke: #ffffff; stroke-width: 1.2"/>
    </g>
   </g>
   <g id="text_23">
    <text style="fill: #ffffff; font: 700 8px 'DejaVu Sans', 'Bitstream Vera Sans', 'Computer Modern Sans Serif', 'Lucida Grande', 'Verdana', 'Geneva', 'Lucid', 'Arial', 'Helvetica', 'Avant Garde', sans-serif; text-anchor: middle" x="480.566381" y="417.197855" transform="rotate(-0 480.566381 417.197855)">8</text>
   </g>
   <g id="PathCollection_9">
    <defs>
     <path id="mc8cbaf9d3f" d="M 0 6.892024 
C 1.827786 6.892024 3.580957 6.165837 4.873397 4.873397 
C 6.165837 3.580957 6.892024 1.827786 6.892024 0 
C 6.892024 -1.827786 6.165837 -3.580957 4.873397 -4.873397 
C 3.580957 -6.165837 1.827786 -6.892024 0 -6.892024 
C -1.827786 -6.892024 -3.580957 -6.165837 -4.873397 -4.873397 
C -6.165837 -3.580957 -6.892024 -1.827786 -6.892024 0 
C -6.892024 1.827786 -6.165837 3.580957 -4.873397 4.873397 
C -3.580957 6.165837 -1.827786 6.892024 0 6.892024 
z
" style="stroke: #ffffff; stroke-width: 1.2"/>
    </defs>
    <g clip-path="url(#pca7f14ecc2)">
     <use xlink:href="#mc8cbaf9d3f" x="147.782278" y="387.449016" style="fill: #6b7280; stroke: #ffffff; stroke-width: 1.2"/>
    </g>
   </g>
   <g id="text_24">
    <text style="fill: #ffffff; font: 700 8px 'DejaVu Sans', 'Bitstream Vera Sans', 'Computer Modern Sans Serif', 'Lucida Grande', 'Verdana', 'Geneva', 'Lucid', 'Arial', 'Helvetica', 'Avant Garde', sans-serif; text-anchor: middle" x="147.782278" y="389.656516" transform="rotate(-0 147.782278 389.656516)">9</text>
   </g>
   <g id="PathCollection_10">
    <g clip-path="url(#pca7f14ecc2)">
     <use xlink:href="#m6d4c4bf70c" x="123.573314" y="49.316146" style="fill: #2563eb; stroke: #ffffff; stroke-width: 1.2"/>
    </g>
   </g>
   <g id="text_25">
    <text style="fill: #ffffff; font: 700 8px 'DejaVu Sans', 'Bitstream Vera Sans', 'Computer Modern Sans Serif', 'Lucida Grande', 'Verdana', 'Geneva', 'Lucid', 'Arial', 'Helvetica', 'Avant Garde', sans-serif; text-anchor: middle" x="123.573314" y="51.523646" transform="rotate(-0 123.573314 51.523646)">10</text>
   </g>
   <g id="text_26">
    <text style="fill: #2563eb; font: 700 10px 'DejaVu Sans', 'Bitstream Vera Sans', 'Computer Modern Sans Serif', 'Lucida Grande', 'Verdana', 'Geneva', 'Lucid', 'Arial', 'Helvetica', 'Avant Garde', sans-serif; text-anchor: start" x="58.481265" y="41.041099" transform="rotate(-0 58.481265 41.041099)">Low CKA / High interaction</text>
   </g>
   <g id="text_27">
    <text style="fill: #16803c; font: 700 10px 'DejaVu Sans', 'Bitstream Vera Sans', 'Computer Modern Sans Serif', 'Lucida Grande', 'Verdana', 'Geneva', 'Lucid', 'Arial', 'Helvetica', 'Avant Garde', sans-serif; text-anchor: end" x="597.640594" y="41.041099" transform="rotate(-0 597.640594 41.041099)">High CKA / High interaction</text>
   </g>
   <g id="text_28">
    <text style="fill: #6b7280; font: 700 10px 'DejaVu Sans', 'Bitstream Vera Sans', 'Computer Modern Sans Serif', 'Lucida Grande', 'Verdana', 'Geneva', 'Lucid', 'Arial', 'Helvetica', 'Avant Garde', sans-serif; text-anchor: start" x="58.481265" y="536.945304" transform="rotate(-0 58.481265 536.945304)">Low CKA / Low interaction</text>
   </g>
   <g id="text_29">
    <text style="fill: #d97706; font: 700 10px 'DejaVu Sans', 'Bitstream Vera Sans', 'Computer Modern Sans Serif', 'Lucida Grande', 'Verdana', 'Geneva', 'Lucid', 'Arial', 'Helvetica', 'Avant Garde', sans-serif; text-anchor: end" x="597.640594" y="536.867179" transform="rotate(-0 597.640594 536.867179)">High CKA / Low interaction</text>
   </g>
   <g id="text_30">
    <text style="fill: #4b5563; font: 8px 'DejaVu Sans', 'Bitstream Vera Sans', 'Computer Modern Sans Serif', 'Lucida Grande', 'Verdana', 'Geneva', 'Lucid', 'Arial', 'Helvetica', 'Avant Garde', sans-serif; text-anchor: end" x="772.728418" y="13.31375" transform="rotate(-0 772.728418 13.31375)">Median CKA=0.8423 | Median interaction=0.1440</text>
   </g>
   <g id="text_31">
    <text style="font: 12px 'DejaVu Sans', 'Bitstream Vera Sans', 'Computer Modern Sans Serif', 'Lucida Grande', 'Verdana', 'Geneva', 'Lucid', 'Arial', 'Helvetica', 'Avant Garde', sans-serif; text-anchor: middle" x="328.06093" y="19.624378" transform="rotate(-0 328.06093 19.624378)">CKA–Interaction Quadrants (mean signed interaction)</text>
   </g>
   <g id="legend_1">
    <g id="line2d_29">
     <path d="M 623.394797 238.383358 
L 630.394797 238.383358 
L 637.394797 238.383358 
" style="fill: none; stroke: #000000; stroke-opacity: 0; stroke-width: 1.5; stroke-linecap: square"/>
     <defs>
      <path id="m905b603745" d="M 0 4.5 
C 1.193414 4.5 2.338109 4.025852 3.181981 3.181981 
C 4.025852 2.338109 4.5 1.193414 4.5 0 
C 4.5 -1.193414 4.025852 -2.338109 3.181981 -3.181981 
C 2.338109 -4.025852 1.193414 -4.5 0 -4.5 
C -1.193414 -4.5 -2.338109 -4.025852 -3.181981 -3.181981 
C -4.025852 -2.338109 -4.5 -1.193414 -4.5 0 
C -4.5 1.193414 -4.025852 2.338109 -3.181981 3.181981 
C -2.338109 4.025852 -1.193414 4.5 0 4.5 
z
" style="stroke: #ffffff"/>
     </defs>
     <g>
      <use xlink:href="#m905b603745" x="630.394797" y="238.383358" style="fill: #d97706; stroke: #ffffff"/>
     </g>
    </g>
    <g id="text_32">
     <text style="font: 7px 'DejaVu Sans', 'Bitstream Vera Sans', 'Computer Modern Sans Serif', 'Lucida Grande', 'Verdana', 'Geneva', 'Lucid', 'Arial', 'Helvetica', 'Avant Garde', sans-serif; text-anchor: start" x="642.994797" y="240.833358" transform="rotate(-0 642.994797 240.833358)">1. features_conch_v1 || features_gigapath</text>
    </g>
    <g id="line2d_30">
     <path d="M 623.394797 248.883358 
L 630.394797 248.883358 
L 637.394797 248.883358 
" style="fill: none; stroke: #000000; stroke-opacity: 0; stroke-width: 1.5; stroke-linecap: square"/>
     <g>
      <use xlink:href="#m905b603745" x="630.394797" y="248.883358" style="fill: #d97706; stroke: #ffffff"/>
     </g>
    </g>
    <g id="text_33">
     <text style="font: 7px 'DejaVu Sans', 'Bitstream Vera Sans', 'Computer Modern Sans Serif', 'Lucida Grande', 'Verdana', 'Geneva', 'Lucid', 'Arial', 'Helvetica', 'Avant Garde', sans-serif; text-anchor: start" x="642.994797" y="251.333358" transform="rotate(-0 642.994797 251.333358)">2. features_conch_v1 || features_phikon</text>
    </g>
    <g id="line2d_31">
     <path d="M 623.394797 259.383358 
L 630.394797 259.383358 
L 637.394797 259.383358 
" style="fill: none; stroke: #000000; stroke-opacity: 0; stroke-width: 1.5; stroke-linecap: square"/>
     <defs>
      <path id="m14526c0ec6" d="M 0 4.5 
C 1.193414 4.5 2.338109 4.025852 3.181981 3.181981 
C 4.025852 2.338109 4.5 1.193414 4.5 0 
C 4.5 -1.193414 4.025852 -2.338109 3.181981 -3.181981 
C 2.338109 -4.025852 1.193414 -4.5 0 -4.5 
C -1.193414 -4.5 -2.338109 -4.025852 -3.181981 -3.181981 
C -4.025852 -2.338109 -4.5 -1.193414 -4.5 0 
C -4.5 1.193414 -4.025852 2.338109 -3.181981 3.181981 
C -2.338109 4.025852 -1.193414 4.5 0 4.5 
z
" style="stroke: #ffffff"/>
     </defs>
     <g>
      <use xlink:href="#m14526c0ec6" x="630.394797" y="259.383358" style="fill: #2563eb; stroke: #ffffff"/>
     </g>
    </g>
    <g id="text_34">
     <text style="font: 7px 'DejaVu Sans', 'Bitstream Vera Sans', 'Computer Modern Sans Serif', 'Lucida Grande', 'Verdana', 'Geneva', 'Lucid', 'Arial', 'Helvetica', 'Avant Garde', sans-serif; text-anchor: start" x="642.994797" y="261.833358" transform="rotate(-0 642.994797 261.833358)">3. features_conch_v1 || features_virchow</text>
    </g>
    <g id="line2d_32">
     <path d="M 623.394797 269.883358 
L 630.394797 269.883358 
L 637.394797 269.883358 
" style="fill: none; stroke: #000000; stroke-opacity: 0; stroke-width: 1.5; stroke-linecap: square"/>
     <g>
      <use xlink:href="#m14526c0ec6" x="630.394797" y="269.883358" style="fill: #2563eb; stroke: #ffffff"/>
     </g>
    </g>
    <g id="text_35">
     <text style="font: 7px 'DejaVu Sans', 'Bitstream Vera Sans', 'Computer Modern Sans Serif', 'Lucida Grande', 'Verdana', 'Geneva', 'Lucid', 'Arial', 'Helvetica', 'Avant Garde', sans-serif; text-anchor: start" x="642.994797" y="272.333358" transform="rotate(-0 642.994797 272.333358)">4. features_conch_v1 || features_virchow2</text>
    </g>
    <g id="line2d_33">
     <path d="M 623.394797 280.383358 
L 630.394797 280.383358 
L 637.394797 280.383358 
" style="fill: none; stroke: #000000; stroke-opacity: 0; stroke-width: 1.5; stroke-linecap: square"/>
     <g>
      <use xlink:href="#m905b603745" x="630.394797" y="280.383358" style="fill: #d97706; stroke: #ffffff"/>
     </g>
    </g>
    <g id="text_36">
     <text style="font: 7px 'DejaVu Sans', 'Bitstream Vera Sans', 'Computer Modern Sans Serif', 'Lucida Grande', 'Verdana', 'Geneva', 'Lucid', 'Arial', 'Helvetica', 'Avant Garde', sans-serif; text-anchor: start" x="642.994797" y="282.833358" transform="rotate(-0 642.994797 282.833358)">5. features_gigapath || features_phikon</text>
    </g>
    <g id="line2d_34">
     <path d="M 623.394797 290.883358 
L 630.394797 290.883358 
L 637.394797 290.883358 
" style="fill: none; stroke: #000000; stroke-opacity: 0; stroke-width: 1.5; stroke-linecap: square"/>
     <defs>
      <path id="m15449a4049" d="M 0 4.5 
C 1.193414 4.5 2.338109 4.025852 3.181981 3.181981 
C 4.025852 2.338109 4.5 1.193414 4.5 0 
C 4.5 -1.193414 4.025852 -2.338109 3.181981 -3.181981 
C 2.338109 -4.025852 1.193414 -4.5 0 -4.5 
C -1.193414 -4.5 -2.338109 -4.025852 -3.181981 -3.181981 
C -4.025852 -2.338109 -4.5 -1.193414 -4.5 0 
C -4.5 1.193414 -4.025852 2.338109 -3.181981 3.181981 
C -2.338109 4.025852 -1.193414 4.5 0 4.5 
z
" style="stroke: #ffffff"/>
     </defs>
     <g>
      <use xlink:href="#m15449a4049" x="630.394797" y="290.883358" style="fill: #16803c; stroke: #ffffff"/>
     </g>
    </g>
    <g id="text_37">
     <text style="font: 7px 'DejaVu Sans', 'Bitstream Vera Sans', 'Computer Modern Sans Serif', 'Lucida Grande', 'Verdana', 'Geneva', 'Lucid', 'Arial', 'Helvetica', 'Avant Garde', sans-serif; text-anchor: start" x="642.994797" y="293.333358" transform="rotate(-0 642.994797 293.333358)">6. features_gigapath || features_virchow</text>
    </g>
    <g id="line2d_35">
     <path d="M 623.394797 301.383358 
L 630.394797 301.383358 
L 637.394797 301.383358 
" style="fill: none; stroke: #000000; stroke-opacity: 0; stroke-width: 1.5; stroke-linecap: square"/>
     <g>
      <use xlink:href="#m14526c0ec6" x="630.394797" y="301.383358" style="fill: #2563eb; stroke: #ffffff"/>
     </g>
    </g>
    <g id="text_38">
     <text style="font: 7px 'DejaVu Sans', 'Bitstream Vera Sans', 'Computer Modern Sans Serif', 'Lucida Grande', 'Verdana', 'Geneva', 'Lucid', 'Arial', 'Helvetica', 'Avant Garde', sans-serif; text-anchor: start" x="642.994797" y="303.833358" transform="rotate(-0 642.994797 303.833358)">7. features_gigapath || features_virchow2</text>
    </g>
    <g id="line2d_36">
     <path d="M 623.394797 311.883358 
L 630.394797 311.883358 
L 637.394797 311.883358 
" style="fill: none; stroke: #000000; stroke-opacity: 0; stroke-width: 1.5; stroke-linecap: square"/>
     <g>
      <use xlink:href="#m905b603745" x="630.394797" y="311.883358" style="fill: #d97706; stroke: #ffffff"/>
     </g>
    </g>
    <g id="text_39">
     <text style="font: 7px 'DejaVu Sans', 'Bitstream Vera Sans', 'Computer Modern Sans Serif', 'Lucida Grande', 'Verdana', 'Geneva', 'Lucid', 'Arial', 'Helvetica', 'Avant Garde', sans-serif; text-anchor: start" x="642.994797" y="314.333358" transform="rotate(-0 642.994797 314.333358)">8. features_phikon || features_virchow</text>
    </g>
    <g id="line2d_37">
     <path d="M 623.394797 322.383358 
L 630.394797 322.383358 
L 637.394797 322.383358 
" style="fill: none; stroke: #000000; stroke-opacity: 0; stroke-width: 1.5; stroke-linecap: square"/>
     <defs>
      <path id="m52612d244a" d="M 0 4.5 
C 1.193414 4.5 2.338109 4.025852 3.181981 3.181981 
C 4.025852 2.338109 4.5 1.193414 4.5 0 
C 4.5 -1.193414 4.025852 -2.338109 3.181981 -3.181981 
C 2.338109 -4.025852 1.193414 -4.5 0 -4.5 
C -1.193414 -4.5 -2.338109 -4.025852 -3.181981 -3.181981 
C -4.025852 -2.338109 -4.5 -1.193414 -4.5 0 
C -4.5 1.193414 -4.025852 2.338109 -3.181981 3.181981 
C -2.338109 4.025852 -1.193414 4.5 0 4.5 
z
" style="stroke: #ffffff"/>
     </defs>
     <g>
      <use xlink:href="#m52612d244a" x="630.394797" y="322.383358" style="fill: #6b7280; stroke: #ffffff"/>
     </g>
    </g>
    <g id="text_40">
     <text style="font: 7px 'DejaVu Sans', 'Bitstream Vera Sans', 'Computer Modern Sans Serif', 'Lucida Grande', 'Verdana', 'Geneva', 'Lucid', 'Arial', 'Helvetica', 'Avant Garde', sans-serif; text-anchor: start" x="642.994797" y="324.833358" transform="rotate(-0 642.994797 324.833358)">9. features_phikon || features_virchow2</text>
    </g>
    <g id="line2d_38">
     <path d="M 623.394797 332.883358 
L 630.394797 332.883358 
L 637.394797 332.883358 
" style="fill: none; stroke: #000000; stroke-opacity: 0; stroke-width: 1.5; stroke-linecap: square"/>
     <g>
      <use xlink:href="#m14526c0ec6" x="630.394797" y="332.883358" style="fill: #2563eb; stroke: #ffffff"/>
     </g>
    </g>
    <g id="text_41">
     <text style="font: 7px 'DejaVu Sans', 'Bitstream Vera Sans', 'Computer Modern Sans Serif', 'Lucida Grande', 'Verdana', 'Geneva', 'Lucid', 'Arial', 'Helvetica', 'Avant Garde', sans-serif; text-anchor: start" x="642.994797" y="335.333358" transform="rotate(-0 642.994797 335.333358)">10. features_virchow || features_virchow2</text>
    </g>
   </g>
  </g>
 </g>
 <defs>
  <clipPath id="pca7f14ecc2">
   <rect x="50.14375" y="25.624378" width="555.83436" height="521.218897"/>
  </clipPath>
 </defs>
</svg>
