<?xml version="1.0" encoding="utf-8"?>
<!-- Generator: Adobe Illustrator 25.0.0, SVG Export Plug-In . SVG Version: 6.00 Build 0)  -->
<svg version="1.1" id="图层_1" xmlns="http://www.w3.org/2000/svg" xmlns:xlink="http://www.w3.org/1999/xlink" x="0px" y="0px"
	 viewBox="0 0 598.8 476.4" style="enable-background:new 0 0 598.8 476.4;" xml:space="preserve">
<style type="text/css">
	.st0{fill:#FFFFFF;}
	
		.st1{clip-path:url(#SVGID_2_);fill:none;stroke:#B0B0B0;stroke-width:0.8;stroke-linecap:square;stroke-linejoin:round;stroke-opacity:0.25;}
	.st2{stroke:#000000;stroke-width:0.8;stroke-linejoin:round;}
	.st3{font-family:'DejaVuSansMono';}
	.st4{font-size:10px;}
	
		.st5{clip-path:url(#SVGID_4_);fill:none;stroke:#B0B0B0;stroke-width:0.8;stroke-linecap:square;stroke-linejoin:round;stroke-opacity:0.25;}
	
		.st6{clip-path:url(#SVGID_6_);fill:none;stroke:#B0B0B0;stroke-width:0.8;stroke-linecap:square;stroke-linejoin:round;stroke-opacity:0.25;}
	
		.st7{clip-path:url(#SVGID_8_);fill:none;stroke:#B0B0B0;stroke-width:0.8;stroke-linecap:square;stroke-linejoin:round;stroke-opacity:0.25;}
	
		.st8{clip-path:url(#SVGID_10_);fill:none;stroke:#B0B0B0;stroke-width:0.8;stroke-linecap:square;stroke-linejoin:round;stroke-opacity:0.25;}
	
		.st9{clip-path:url(#SVGID_12_);fill:none;stroke:#B0B0B0;stroke-width:0.8;stroke-linecap:square;stroke-linejoin:round;stroke-opacity:0.25;}
	
		.st10{clip-path:url(#SVGID_14_);fill:none;stroke:#B0B0B0;stroke-width:0.8;stroke-linecap:square;stroke-linejoin:round;stroke-opacity:0.25;}
	
		.st11{clip-path:url(#SVGID_16_);fill:none;stroke:#B0B0B0;stroke-width:0.8;stroke-linecap:square;stroke-linejoin:round;stroke-opacity:0.25;}
	
		.st12{clip-path:url(#SVGID_18_);fill:none;stroke:#B0B0B0;stroke-width:0.8;stroke-linecap:square;stroke-linejoin:round;stroke-opacity:0.25;}
	
		.st13{clip-path:url(#SVGID_20_);fill:none;stroke:#B0B0B0;stroke-width:0.8;stroke-linecap:square;stroke-linejoin:round;stroke-opacity:0.25;}
	
		.st14{clip-path:url(#SVGID_22_);fill:none;stroke:#B0B0B0;stroke-width:0.8;stroke-linecap:square;stroke-linejoin:round;stroke-opacity:0.25;}
	
		.st15{clip-path:url(#SVGID_24_);fill:none;stroke:#B0B0B0;stroke-width:0.8;stroke-linecap:square;stroke-linejoin:round;stroke-opacity:0.25;}
	
		.st16{clip-path:url(#SVGID_26_);fill:none;stroke:#B0B0B0;stroke-width:0.8;stroke-linecap:square;stroke-linejoin:round;stroke-opacity:0.25;}
	.st17{clip-path:url(#SVGID_28_);fill:none;stroke:#9A3412;stroke-width:1.4;stroke-linejoin:round;stroke-dasharray:5.18,2.24;}
	.st18{fill:none;stroke:#000000;stroke-width:0.8;stroke-linecap:square;}
	.st19{clip-path:url(#SVGID_30_);}
	.st20{fill:#0F766E;stroke:#FFFFFF;stroke-linejoin:round;}
	.st21{font-size:8px;}
	.st22{font-size:13px;}
</style>
<g id="patch_1">
	<path class="st0" d="M0,476.4h598.8V0H0V476.4z"/>
</g>
<g id="patch_2">
	<path class="st0" d="M50.1,438.8h484.2V43.7H50.1V438.8z"/>
</g>
<g id="matplotlib.axis_1">
	<g id="xtick_1">
		<g id="line2d_1">
			<g>
				<defs>
					<rect id="SVGID_1_" x="50.1" y="43.7" width="484.2" height="395.1"/>
				</defs>
				<clipPath id="SVGID_2_">
					<use xlink:href="#SVGID_1_"  style="overflow:visible;"/>
				</clipPath>
				<path class="st1" d="M78.3,438.8V43.7"/>
			</g>
		</g>
		<g id="line2d_2">
			<g>
				<g>
					<path id="m38a951f74c" class="st2" d="M78.3,438.8v3.5"/>
				</g>
			</g>
		</g>
		<g id="text_1">
			<text transform="matrix(1 0 0 1 66.211 453.4417)" class="st3 st4">0.76</text>
		</g>
	</g>
	<g id="xtick_2">
		<g id="line2d_3">
			<g>
				<defs>
					<rect id="SVGID_3_" x="50.1" y="43.7" width="484.2" height="395.1"/>
				</defs>
				<clipPath id="SVGID_4_">
					<use xlink:href="#SVGID_3_"  style="overflow:visible;"/>
				</clipPath>
				<path class="st5" d="M138.4,438.8V43.7"/>
			</g>
		</g>
		<g id="line2d_4">
			<g>
				<g>
					<path id="m38a951f74c_1_" class="st2" d="M138.4,438.8v3.5"/>
				</g>
			</g>
		</g>
		<g id="text_2">
			<text transform="matrix(1 0 0 1 126.4026 453.4417)" class="st3 st4">0.78</text>
		</g>
	</g>
	<g id="xtick_3">
		<g id="line2d_5">
			<g>
				<defs>
					<rect id="SVGID_5_" x="50.1" y="43.7" width="484.2" height="395.1"/>
				</defs>
				<clipPath id="SVGID_6_">
					<use xlink:href="#SVGID_5_"  style="overflow:visible;"/>
				</clipPath>
				<path class="st6" d="M198.6,438.8V43.7"/>
			</g>
		</g>
		<g id="line2d_6">
			<g>
				<g>
					<path id="m38a951f74c_2_" class="st2" d="M198.6,438.8v3.5"/>
				</g>
			</g>
		</g>
		<g id="text_3">
			<text transform="matrix(1 0 0 1 186.5941 453.4417)" class="st3 st4">0.80</text>
		</g>
	</g>
	<g id="xtick_4">
		<g id="line2d_7">
			<g>
				<defs>
					<rect id="SVGID_7_" x="50.1" y="43.7" width="484.2" height="395.1"/>
				</defs>
				<clipPath id="SVGID_8_">
					<use xlink:href="#SVGID_7_"  style="overflow:visible;"/>
				</clipPath>
				<path class="st7" d="M258.8,438.8V43.7"/>
			</g>
		</g>
		<g id="line2d_8">
			<g>
				<g>
					<path id="m38a951f74c_3_" class="st2" d="M258.8,438.8v3.5"/>
				</g>
			</g>
		</g>
		<g id="text_4">
			<text transform="matrix(1 0 0 1 246.7858 453.4417)" class="st3 st4">0.82</text>
		</g>
	</g>
	<g id="xtick_5">
		<g id="line2d_9">
			<g>
				<defs>
					<rect id="SVGID_9_" x="50.1" y="43.7" width="484.2" height="395.1"/>
				</defs>
				<clipPath id="SVGID_10_">
					<use xlink:href="#SVGID_9_"  style="overflow:visible;"/>
				</clipPath>
				<path class="st8" d="M319,438.8V43.7"/>
			</g>
		</g>
		<g id="line2d_10">
			<g>
				<g>
					<path id="m38a951f74c_4_" class="st2" d="M319,438.8v3.5"/>
				</g>
			</g>
		</g>
		<g id="text_5">
			<text transform="matrix(1 0 0 1 306.9773 453.4417)" class="st3 st4">0.84</text>
		</g>
	</g>
	<g id="xtick_6">
		<g id="line2d_11">
			<g>
				<defs>
					<rect id="SVGID_11_" x="50.1" y="43.7" width="484.2" height="395.1"/>
				</defs>
				<clipPath id="SVGID_12_">
					<use xlink:href="#SVGID_11_"  style="overflow:visible;"/>
				</clipPath>
				<path class="st9" d="M379.2,438.8V43.7"/>
			</g>
		</g>
		<g id="line2d_12">
			<g>
				<g>
					<path id="m38a951f74c_5_" class="st2" d="M379.2,438.8v3.5"/>
				</g>
			</g>
		</g>
		<g id="text_6">
			<text transform="matrix(1 0 0 1 367.1689 453.4417)" class="st3 st4">0.86</text>
		</g>
	</g>
	<g id="xtick_7">
		<g id="line2d_13">
			<g>
				<defs>
					<rect id="SVGID_13_" x="50.1" y="43.7" width="484.2" height="395.1"/>
				</defs>
				<clipPath id="SVGID_14_">
					<use xlink:href="#SVGID_13_"  style="overflow:visible;"/>
				</clipPath>
				<path class="st10" d="M439.4,438.8V43.7"/>
			</g>
		</g>
		<g id="line2d_14">
			<g>
				<g>
					<path id="m38a951f74c_6_" class="st2" d="M439.4,438.8v3.5"/>
				</g>
			</g>
		</g>
		<g id="text_7">
			<text transform="matrix(1 0 0 1 427.3605 453.4417)" class="st3 st4">0.88</text>
		</g>
	</g>
	<g id="xtick_8">
		<g id="line2d_15">
			<g>
				<defs>
					<rect id="SVGID_15_" x="50.1" y="43.7" width="484.2" height="395.1"/>
				</defs>
				<clipPath id="SVGID_16_">
					<use xlink:href="#SVGID_15_"  style="overflow:visible;"/>
				</clipPath>
				<path class="st11" d="M499.6,438.8V43.7"/>
			</g>
		</g>
		<g id="line2d_16">
			<g>
				<g>
					<path id="m38a951f74c_7_" class="st2" d="M499.6,438.8v3.5"/>
				</g>
			</g>
		</g>
		<g id="text_8">
			<text transform="matrix(1 0 0 1 487.552 453.4417)" class="st3 st4">0.90</text>
		</g>
	</g>
	<g id="text_9">
		<text transform="matrix(1 0 0 1 220.0198 467.1199)" class="st3 st4">Mean pairwise Linear CKA</text>
	</g>
</g>
<g id="matplotlib.axis_2">
	<g id="ytick_1">
		<g id="line2d_17">
			<g>
				<defs>
					<rect id="SVGID_17_" x="50.1" y="43.7" width="484.2" height="395.1"/>
				</defs>
				<clipPath id="SVGID_18_">
					<use xlink:href="#SVGID_17_"  style="overflow:visible;"/>
				</clipPath>
				<path class="st12" d="M50.1,386.4h484.2"/>
			</g>
		</g>
		<g id="line2d_18">
			<g>
				<g>
					<path id="m5dde489c03" class="st2" d="M50.1,386.4h-3.5"/>
				</g>
			</g>
		</g>
		<g id="text_10">
			<text transform="matrix(1 0 0 1 19.0617 390.1841)" class="st3 st4">0.18</text>
		</g>
	</g>
	<g id="ytick_2">
		<g id="line2d_19">
			<g>
				<defs>
					<rect id="SVGID_19_" x="50.1" y="43.7" width="484.2" height="395.1"/>
				</defs>
				<clipPath id="SVGID_20_">
					<use xlink:href="#SVGID_19_"  style="overflow:visible;"/>
				</clipPath>
				<path class="st13" d="M50.1,314.8h484.2"/>
			</g>
		</g>
		<g id="line2d_20">
			<g>
				<g>
					<path id="m5dde489c03_1_" class="st2" d="M50.1,314.8h-3.5"/>
				</g>
			</g>
		</g>
		<g id="text_11">
			<text transform="matrix(1 0 0 1 19.0617 318.6401)" class="st3 st4">0.19</text>
		</g>
	</g>
	<g id="ytick_3">
		<g id="line2d_21">
			<g>
				<defs>
					<rect id="SVGID_21_" x="50.1" y="43.7" width="484.2" height="395.1"/>
				</defs>
				<clipPath id="SVGID_22_">
					<use xlink:href="#SVGID_21_"  style="overflow:visible;"/>
				</clipPath>
				<path class="st14" d="M50.1,243.3h484.2"/>
			</g>
		</g>
		<g id="line2d_22">
			<g>
				<g>
					<path id="m5dde489c03_2_" class="st2" d="M50.1,243.3h-3.5"/>
				</g>
			</g>
		</g>
		<g id="text_12">
			<text transform="matrix(1 0 0 1 19.0617 247.0961)" class="st3 st4">0.20</text>
		</g>
	</g>
	<g id="ytick_4">
		<g id="line2d_23">
			<g>
				<defs>
					<rect id="SVGID_23_" x="50.1" y="43.7" width="484.2" height="395.1"/>
				</defs>
				<clipPath id="SVGID_24_">
					<use xlink:href="#SVGID_23_"  style="overflow:visible;"/>
				</clipPath>
				<path class="st15" d="M50.1,171.8h484.2"/>
			</g>
		</g>
		<g id="line2d_24">
			<g>
				<g>
					<path id="m5dde489c03_3_" class="st2" d="M50.1,171.8h-3.5"/>
				</g>
			</g>
		</g>
		<g id="text_13">
			<text transform="matrix(1 0 0 1 19.0617 175.5521)" class="st3 st4">0.21</text>
		</g>
	</g>
	<g id="ytick_5">
		<g id="line2d_25">
			<g>
				<defs>
					<rect id="SVGID_25_" x="50.1" y="43.7" width="484.2" height="395.1"/>
				</defs>
				<clipPath id="SVGID_26_">
					<use xlink:href="#SVGID_25_"  style="overflow:visible;"/>
				</clipPath>
				<path class="st16" d="M50.1,100.2h484.2"/>
			</g>
		</g>
		<g id="line2d_26">
			<g>
				<g>
					<path id="m5dde489c03_4_" class="st2" d="M50.1,100.2h-3.5"/>
				</g>
			</g>
		</g>
		<g id="text_14">
			<text transform="matrix(1 0 0 1 19.0617 104.0081)" class="st3 st4">0.22</text>
		</g>
	</g>
	<g id="text_15">
		<text transform="matrix(6.123234e-17 -1 1 6.123234e-17 14.7985 361.6836)" class="st3 st4">Mean absolute feature-level Spearman rho</text>
	</g>
</g>
<g id="line2d_27">
	<g>
		<defs>
			<rect id="SVGID_27_" x="50.1" y="43.7" width="484.2" height="395.1"/>
		</defs>
		<clipPath id="SVGID_28_">
			<use xlink:href="#SVGID_27_"  style="overflow:visible;"/>
		</clipPath>
		<path class="st17" d="M72.2,195.5l4.4,1l4.4,1l4.4,1l4.4,1l4.4,1l4.4,1l4.4,1l4.4,1l4.4,1l4.4,1l4.4,1l4.4,1l4.4,1l4.4,1l4.4,1
			l4.4,1l4.4,1l4.4,1l4.4,1l4.4,1l4.4,1l4.4,1l4.4,1l4.4,1l4.4,1l4.4,1l4.4,1l4.4,1l4.4,1l4.4,1l4.4,1l4.4,1l4.4,1l4.4,1l4.4,1
			l4.4,1l4.4,1l4.4,1l4.4,1l4.4,1l4.4,1l4.4,1l4.4,1l4.4,1l4.4,1l4.4,1l4.4,1l4.4,1l4.4,1l4.4,1l4.4,1l4.4,1l4.4,1l4.4,1l4.4,1
			l4.4,1l4.4,1l4.4,1l4.4,1l4.4,1l4.4,1l4.4,1l4.4,1l4.4,1l4.4,1l4.4,1l4.4,1l4.4,1l4.4,1l4.4,1l4.4,1l4.4,1l4.4,1l4.4,1l4.4,1
			l4.4,1l4.4,1l4.4,1l4.4,1l4.4,1l4.4,1l4.4,1l4.4,1l4.4,1l4.4,1l4.4,1l4.4,1l4.4,1l4.4,1l4.4,1l4.4,1l4.4,1l4.4,1l4.4,1l4.4,1
			l4.4,1l4.4,1l4.4,1l4.4,1"/>
	</g>
</g>
<g id="patch_3">
	<path class="st18" d="M50.1,438.8V43.7"/>
</g>
<g id="patch_4">
	<path class="st18" d="M534.4,438.8V43.7"/>
</g>
<g id="patch_5">
	<path class="st18" d="M50.1,438.8h484.2"/>
</g>
<g id="patch_6">
	<path class="st18" d="M50.1,43.7h484.2"/>
</g>
<g id="PathCollection_1">
	<g>
		<defs>
			<rect id="SVGID_29_" x="50.1" y="43.7" width="484.2" height="395.1"/>
		</defs>
		<clipPath id="SVGID_30_">
			<use xlink:href="#SVGID_29_"  style="overflow:visible;"/>
		</clipPath>
		<g class="st19">
			<g>
				<path id="me1d7c85d95" class="st20" d="M72.2,117.3c1.2,0,2.4-0.5,3.3-1.4c0.9-0.9,1.4-2.1,1.4-3.3s-0.5-2.4-1.4-3.3
					c-0.9-0.9-2.1-1.4-3.3-1.4s-2.4,0.5-3.3,1.4c-0.9,0.9-1.4,2.1-1.4,3.3s0.5,2.4,1.4,3.3C69.7,116.8,70.9,117.3,72.2,117.3z"/>
			</g>
			<g>
				<path id="me1d7c85d95_1_" class="st20" d="M397.6,208.1c1.2,0,2.4-0.5,3.3-1.4s1.4-2.1,1.4-3.3s-0.5-2.4-1.4-3.3
					s-2.1-1.4-3.3-1.4s-2.4,0.5-3.3,1.4s-1.4,2.1-1.4,3.3s0.5,2.4,1.4,3.3S396.3,208.1,397.6,208.1z"/>
			</g>
			<g>
				<path id="me1d7c85d95_2_" class="st20" d="M169,352.5c1.2,0,2.4-0.5,3.3-1.4s1.4-2.1,1.4-3.3c0-1.2-0.5-2.4-1.4-3.3
					s-2.1-1.4-3.3-1.4s-2.4,0.5-3.3,1.4s-1.4,2.1-1.4,3.3c0,1.2,0.5,2.4,1.4,3.3S167.8,352.5,169,352.5z"/>
			</g>
			<g>
				<path id="me1d7c85d95_3_" class="st20" d="M392.9,203.8c1.2,0,2.4-0.5,3.3-1.4s1.4-2.1,1.4-3.3s-0.5-2.4-1.4-3.3
					s-2.1-1.4-3.3-1.4s-2.4,0.5-3.3,1.4s-1.4,2.1-1.4,3.3s0.5,2.4,1.4,3.3S391.7,203.8,392.9,203.8z"/>
			</g>
			<g>
				<path id="me1d7c85d95_4_" class="st20" d="M506.7,425.6c1.2,0,2.4-0.5,3.3-1.4s1.4-2.1,1.4-3.3c0-1.2-0.5-2.4-1.4-3.3
					s-2.1-1.4-3.3-1.4s-2.4,0.5-3.3,1.4s-1.4,2.1-1.4,3.3c0,1.2,0.5,2.4,1.4,3.3S505.5,425.6,506.7,425.6z"/>
			</g>
			<g>
				<path id="me1d7c85d95_5_" class="st20" d="M425.1,299.5c1.2,0,2.4-0.5,3.3-1.4s1.4-2.1,1.4-3.3c0-1.2-0.5-2.4-1.4-3.3
					s-2.1-1.4-3.3-1.4s-2.4,0.5-3.3,1.4s-1.4,2.1-1.4,3.3c0,1.2,0.5,2.4,1.4,3.3S423.9,299.5,425.1,299.5z"/>
			</g>
			<g>
				<path id="me1d7c85d95_6_" class="st20" d="M135.2,356.4c1.2,0,2.4-0.5,3.3-1.4s1.4-2.1,1.4-3.3c0-1.2-0.5-2.4-1.4-3.3
					s-2.1-1.4-3.3-1.4s-2.4,0.5-3.3,1.4s-1.4,2.1-1.4,3.3c0,1.2,0.5,2.4,1.4,3.3S134,356.4,135.2,356.4z"/>
			</g>
			<g>
				<path id="me1d7c85d95_7_" class="st20" d="M258.9,66.4c1.2,0,2.4-0.5,3.3-1.4s1.4-2.1,1.4-3.3s-0.5-2.4-1.4-3.3
					c-0.9-0.9-2.1-1.4-3.3-1.4s-2.4,0.5-3.3,1.4c-0.9,0.9-1.4,2.1-1.4,3.3s0.5,2.4,1.4,3.3S257.7,66.4,258.9,66.4z"/>
			</g>
			<g>
				<path id="me1d7c85d95_8_" class="st20" d="M512.4,291.8c1.2,0,2.4-0.5,3.3-1.4s1.4-2.1,1.4-3.3c0-1.2-0.5-2.4-1.4-3.3
					s-2.1-1.4-3.3-1.4c-1.2,0-2.4,0.5-3.3,1.4s-1.4,2.1-1.4,3.3c0,1.2,0.5,2.4,1.4,3.3S511.1,291.8,512.4,291.8z"/>
			</g>
			<g>
				<path id="me1d7c85d95_9_" class="st20" d="M114.1,202.7c1.2,0,2.4-0.5,3.3-1.4c0.9-0.9,1.4-2.1,1.4-3.3s-0.5-2.4-1.4-3.3
					c-0.9-0.9-2.1-1.4-3.3-1.4s-2.4,0.5-3.3,1.4c-0.9,0.9-1.4,2.1-1.4,3.3s0.5,2.4,1.4,3.3C111.7,202.2,112.9,202.7,114.1,202.7z"/>
			</g>
		</g>
	</g>
</g>
<g id="text_16">
	<text transform="matrix(1 0 0 1 77.1548 107.5767)" class="st3 st21">conch_v1 / virchow2</text>
</g>
<g id="text_17">
	<text transform="matrix(1 0 0 1 403.573 200.4578)" class="st3 st21">gigapath / conch_v1</text>
</g>
<g id="text_18">
	<text transform="matrix(1 0 0 1 162.0333 339.8505)" class="st3 st21">gigapath / virchow2</text>
</g>
<g id="text_19">
	<text transform="matrix(1 0 0 1 356.9165 190.1484)" class="st3 st21">phikon / conch_v1</text>
</g>
<g id="text_20">
	<text transform="matrix(1 0 0 1 446.7048 413.8824)" class="st3 st21">phikon / gigapath</text>
</g>
<g id="text_21">
	<text transform="matrix(1 0 0 1 372.1289 289.8153)" class="st3 st21">phikon / virchow</text>
</g>
<g id="text_22">
	<text transform="matrix(1 0 0 1 75.2067 344.6979)" class="st3 st21">phikon / virchow2</text>
</g>
<g id="text_23">
	<text transform="matrix(1 0 0 1 263.8964 56.6643)" class="st3 st21">virchow / conch_v1</text>
</g>
<g id="text_24">
	<text transform="matrix(1 0 0 1 445.3768 277.0804)" class="st3 st21">virchow / gigapath</text>
</g>
<g id="text_25">
	<text transform="matrix(1 0 0 1 119.1157 193.0219)" class="st3 st21">virchow / virchow2</text>
</g>
<g id="text_26">
	<text transform="matrix(1 0 0 1 132.0814 17.078)" class="st3 st22">CKA and feature-level Spearman correspondence</text>
	<text transform="matrix(1 0 0 1 88.8098 31.7034)" class="st3 st22">Pairs=10 | Pearson r=-0.344 | Spearman rho=-0.418, p=0.229</text>
</g>
</svg>
